<?xml version="1.0" encoding="utf-8"?>
<!-- Generator: Adobe Illustrator 18.1.0, SVG Export Plug-In . SVG Version: 6.00 Build 0)  -->
<svg version="1.1" id="Layer_1" xmlns="http://www.w3.org/2000/svg" xmlns:xlink="http://www.w3.org/1999/xlink" x="0px" y="0px"
	 width="261.5px" height="266.7px" viewBox="-403 437 261.5 266.7" enable-background="new -403 437 261.5 266.7"
	 xml:space="preserve">
<rect x="-403" y="437" display="none" fill="#ADAD2D" width="192" height="128"/>
<path fill="#FFFFFF" d="M-290.8,553.3c0,0,0,0,0-0.4c0-0.3,0-1,0-2.3c0-0.3,0-0.7-0.2-1.2s-0.5-1-1.2-1.7c-1.9-1.9-5-4.2-7.7-6
	c-2.7-1.8-5.1-3.2-5.6-3.2c-0.7,0-1.6,0.7-2.9,1.3c-1.3,0.7-2.8,1.3-4.9,1.3c-2.1,0-3.7-0.7-5-1.3c-1.3-0.7-2.2-1.3-3-1.3
	c-0.5,0-2.9,1.4-5.6,3.2c-2.7,1.8-5.8,4.1-7.7,6c-0.7,0.7-1,1.2-1.2,1.7c-0.2,0.5-0.2,0.9-0.2,1.2c0,1.3,0,2,0,2.3
	c0,0.3,0,0.4,0,0.4c0,1.1,0.4,2.1,1.2,2.8c0.7,0.7,1.7,1.2,2.8,1.2h9.4h10.5h7.9h9.4c1.1,0,2.1-0.5,2.8-1.2
	C-291.3,555.4-290.8,554.4-290.8,553.3z"/>
<path fill="#FFFFFF" d="M-277.3,548.2c-0.2-0.4-0.5-0.9-1.1-1.5c-1.7-1.7-4.5-3.7-6.9-5.4c-2.4-1.6-4.6-2.9-5-2.9
	c-0.6,0-1.4,0.6-2.6,1.2c-1.2,0.6-2.5,1.2-4.4,1.2c-0.1,0-0.3,0-0.4,0c1.9,1.3,4.8,3.4,6.9,5.5c0.8,0.8,1.4,1.6,1.7,2.4
	c0.3,0.8,0.3,1.5,0.3,1.9v2.3v0.4c0,0.7-0.1,1.4-0.4,2h0h8.4c1,0,1.9-0.4,2.6-1.1c0.7-0.7,1.1-1.6,1.1-2.6c0,0,0,0,0-0.3
	c0-0.3,0-0.9,0-2.1C-277.1,549-277.1,548.7-277.3,548.2z"/>
<g>
	<path fill="#FFFFFF" d="M-313.4,539.5c-6.6,0-12.1-6.1-12.1-13.6c0-7.5,5.4-13.6,12.1-13.6c6.6,0,12.1,6.1,12.1,13.6
		C-301.4,533.4-306.8,539.5-313.4,539.5z"/>
</g>
<g>
	<rect x="-248.7" y="558.2" fill="#FFFFFF" width="10.4" height="2"/>
	<rect x="-237.3" y="544.4" fill="#FFFFFF" width="4.7" height="6.9"/>
	<rect x="-248.7" y="561.1" fill="#FFFFFF" width="10.4" height="2"/>
	<rect x="-237.3" y="534.6" fill="#FFFFFF" width="4.7" height="6.9"/>
	<rect x="-254.4" y="544.4" fill="#FFFFFF" width="4.7" height="6.9"/>
	<rect x="-246.8" y="534.6" fill="#FFFFFF" width="6.6" height="6.9"/>
	<rect x="-246.8" y="544.4" fill="#FFFFFF" width="6.6" height="11.8"/>
	<path fill="#FFFFFF" d="M-221.5,523.8h-12.9V512h1.4l-4.9-6.9h-11.3l-5,6.9h1.8v11.8h-13.2l-5,6.9h1.7l0,32.4h18.4v-8.8h-15.2
		v-23.6h44.6v23.6h-15.2v8.8h18l0-32.4h1.7L-221.5,523.8z M-238.2,523.8h-11.4V512h11.4V523.8z"/>
	<rect x="-246.8" y="514.9" fill="#FFFFFF" width="5.7" height="6.9"/>
	<rect x="-262.9" y="534.6" fill="#FFFFFF" width="5.7" height="6.9"/>
	<rect x="-254.4" y="534.6" fill="#FFFFFF" width="4.7" height="6.9"/>
	<rect x="-262.9" y="544.4" fill="#FFFFFF" width="5.7" height="6.9"/>
	<rect x="-229.7" y="534.6" fill="#FFFFFF" width="5.7" height="6.9"/>
	<rect x="-229.7" y="544.4" fill="#FFFFFF" width="5.7" height="6.9"/>
</g>
<g>
	<rect x="-248.7" y="492.7" fill="#474747" width="10.4" height="2"/>
	<rect x="-237.3" y="479" fill="#474747" width="4.7" height="6.9"/>
	<rect x="-248.7" y="495.7" fill="#474747" width="10.4" height="2"/>
	<rect x="-237.3" y="469.1" fill="#474747" width="4.7" height="6.9"/>
	<rect x="-254.4" y="479" fill="#474747" width="4.7" height="6.9"/>
	<rect x="-246.8" y="469.1" fill="#474747" width="6.6" height="6.9"/>
	<rect x="-246.8" y="479" fill="#474747" width="6.6" height="11.8"/>
	<path fill="#474747" d="M-221.5,458.3h-12.9v-11.8h1.4l-4.9-6.9h-11.3l-5,6.9h1.8v11.8h-13.2l-5,6.9h1.7l0,32.4h18.4v-8.8h-15.2
		v-23.6h44.6v23.6h-15.2v8.8h18l0-32.4h1.7L-221.5,458.3z M-238.2,458.3h-11.4v-11.8h11.4V458.3z"/>
	<rect x="-246.8" y="449.5" fill="#474747" width="5.7" height="6.9"/>
	<rect x="-262.9" y="469.1" fill="#474747" width="5.7" height="6.9"/>
	<rect x="-254.4" y="469.1" fill="#474747" width="4.7" height="6.9"/>
	<rect x="-262.9" y="479" fill="#474747" width="5.7" height="6.9"/>
	<rect x="-229.7" y="469.1" fill="#474747" width="5.7" height="6.9"/>
	<rect x="-229.7" y="479" fill="#474747" width="5.7" height="6.9"/>
</g>
<path fill="#FFFFFF" d="M-298.4,514.8c-1.5,0-2.9,0.3-4.2,1c2,2.7,3.3,6.2,3.3,10.1c0,4.6-1.8,8.7-4.6,11.6c1.6,1.1,3.5,1.7,5.5,1.7
	c6,0,10.8-5.5,10.8-12.2C-287.6,520.3-292.5,514.8-298.4,514.8z"/>
<g>
	<defs>
		<rect id="SVGID_1_" x="-391.4" y="437.1" width="46.9" height="63.8"/>
	</defs>
	<clipPath id="SVGID_2_">
		<use xlink:href="#SVGID_1_"  overflow="visible"/>
	</clipPath>
	<g clip-path="url(#SVGID_2_)">
		<path fill="#474747" d="M-364.4,439.1v19h18v38.9h-42.9v-57.9H-364.4 M-384.4,467h32.9v-3h-32.9V467 M-384.4,473h32.9v-3h-32.9
			V473 M-384.4,479h32.9v-3h-32.9V479 M-384.4,485h32.9v-3h-32.9V485 M-384.4,490.9h32.9v-3h-32.9V490.9 M-362.4,440.2l15,15.8
			c0,0-13,0-15,0V440.2"/>
	</g>
</g>
<rect x="-266.9" y="570.3" fill="none" width="46.9" height="63.8"/>
<rect x="-328.8" y="570.3" fill="none" width="46.9" height="63.8"/>
<g>
	<defs>
		<rect id="SVGID_3_" x="-391.4" y="501.7" width="46.9" height="63.8"/>
	</defs>
	<clipPath id="SVGID_4_">
		<use xlink:href="#SVGID_3_"  overflow="visible"/>
	</clipPath>
	<g clip-path="url(#SVGID_4_)">
		<path fill="#FFFFFF" d="M-364.4,503.6v19h18v38.9h-42.9v-57.9H-364.4 M-384.4,531.6h32.9v-3h-32.9V531.6 M-384.4,537.6h32.9v-3
			h-32.9V537.6 M-384.4,543.5h32.9v-3h-32.9V543.5 M-384.4,549.5h32.9v-3h-32.9V549.5 M-384.4,555.5h32.9v-3h-32.9V555.5
			 M-362.4,504.8l15,15.8c0,0-13,0-15,0V504.8"/>
	</g>
</g>
<g>
	<path fill="#474747" d="M-290.8,487.2c0,0,0,0,0-0.4c0-0.3,0-1,0-2.3c0-0.3,0-0.7-0.2-1.2s-0.5-1-1.2-1.7c-1.9-1.9-5-4.2-7.7-6
		c-2.7-1.8-5.1-3.2-5.6-3.2c-0.7,0-1.6,0.7-2.9,1.3c-1.3,0.7-2.8,1.3-4.9,1.3c-2.1,0-3.7-0.7-5-1.3c-1.3-0.7-2.2-1.3-3-1.3
		c-0.5,0-2.9,1.4-5.6,3.2c-2.7,1.8-5.8,4.1-7.7,6c-0.7,0.7-1,1.2-1.2,1.7c-0.2,0.5-0.2,0.9-0.2,1.2c0,1.3,0,2,0,2.3
		c0,0.3,0,0.4,0,0.4c0,1.1,0.4,2.1,1.2,2.8c0.7,0.7,1.7,1.2,2.8,1.2h9.4h10.5h7.9h9.4c1.1,0,2.1-0.5,2.8-1.2
		C-291.3,489.4-290.8,488.4-290.8,487.2z"/>
	<path fill="#474747" d="M-277.3,482.1c-0.2-0.4-0.5-0.9-1.1-1.5c-1.7-1.7-4.5-3.7-6.9-5.4c-2.4-1.6-4.6-2.9-5-2.9
		c-0.6,0-1.4,0.6-2.6,1.2c-1.2,0.6-2.5,1.2-4.4,1.2c-0.1,0-0.3,0-0.4,0c1.9,1.3,4.8,3.4,6.9,5.5c0.8,0.8,1.4,1.6,1.7,2.4
		c0.3,0.8,0.3,1.5,0.3,1.9v2.3v0.4c0,0.7-0.1,1.4-0.4,2h0h8.4c1,0,1.9-0.4,2.6-1.1c0.7-0.7,1.1-1.6,1.1-2.6c0,0,0,0,0-0.3
		c0-0.3,0-0.9,0-2.1C-277.1,482.9-277.1,482.6-277.3,482.1z"/>
	<g>
		<path fill="#474747" d="M-313.4,473.4c-6.6,0-12.1-6.1-12.1-13.6c0-7.5,5.4-13.6,12.1-13.6c6.6,0,12.1,6.1,12.1,13.6
			C-301.4,467.3-306.8,473.4-313.4,473.4z"/>
	</g>
	<path fill="#474747" d="M-298.4,448.8c-1.5,0-2.9,0.3-4.2,1c2,2.7,3.3,6.2,3.3,10.1c0,4.6-1.8,8.7-4.6,11.6
		c1.6,1.1,3.5,1.7,5.5,1.7c6,0,10.8-5.5,10.8-12.2C-287.6,454.2-292.5,448.8-298.4,448.8z"/>
</g>
<rect x="-391.4" y="570.3" fill="none" width="46.9" height="63.8"/>
<rect x="-384.4" y="597.3" fill="none" width="32.9" height="3"/>
<rect x="-384.4" y="603.2" fill="none" width="32.9" height="3"/>
<rect x="-384.4" y="609.2" fill="none" width="32.9" height="3"/>
<polygon fill="none" points="-360.4,621.5 -360.1,621.2 -384.4,621.2 -384.4,624.2 -360.4,624.2 -360.4,622.3 "/>
<polygon fill="none" points="-384.4,615.2 -384.4,618.2 -357.1,618.2 -354.1,615.2 "/>
<path fill="#474747" d="M-362.4,573.5v15.8c2,0,15,0,15,0L-362.4,573.5z"/>
<path fill="#474747" d="M-352.6,629.3h-0.8h-4.9h-2v-2v-3.1h-24v-3h24.3l0.3-0.3l2.7-2.7h-27.3v-3h30.3l3.6-3.6l0,0l1.4-1.4l0.7-0.7
	l0,0l1.3-1.3c0.2-0.2,0.5-0.4,0.7-0.6v-16.5h-18v-19h-24.9v57.9h42.9v-7.1l-5.5,5.5L-352.6,629.3z M-384.4,597.3h32.9v3h-32.9V597.3
	z M-384.4,603.2h32.9v3h-32.9V603.2z M-384.4,609.2h32.9v3h-32.9V609.2z"/>
<g>
	<polygon fill="none" points="-355.8,621.9 -356.9,622.9 -356.9,624.2 -356.9,624.2 -355.4,624.2 -355.4,625.7 -354.1,625.7 
		-353,624.7 -353.5,624.2 	"/>
	<path fill="none" d="M-348.1,614.4c-0.1,0-0.1,0-0.2,0.1l-3.1,3.1l-0.5,0.5l-2.8,2.8c-0.1,0.1-0.1,0.1-0.1,0.2c0,0,0,0,0,0
		c0,0.1,0.1,0.2,0.2,0.2c0.1,0,0.1,0,0.2-0.1l0.1-0.1l6.3-6.3c0.1-0.1,0.1-0.1,0.1-0.2C-347.9,614.6-348,614.4-348.1,614.4z"/>
	<path fill="#474747" d="M-346.5,614.4l-2-2l-3,3l-2.8,2.8l-3,3l-1.1,1.1v1.9v3.1h4.9l7-7l2.9-2.9L-346.5,614.4z M-354.1,625.7h-1.3
		v-1.5h-1.5v0v-1.3l1.1-1.1l2.3,2.3l0.5,0.5L-354.1,625.7z M-348,614.9l-6.3,6.3l-0.1,0.1c-0.1,0.1-0.1,0.1-0.2,0.1
		c-0.1,0-0.2-0.1-0.2-0.2c0,0,0,0,0,0c0-0.1,0-0.1,0.1-0.2l2.8-2.8l0.5-0.5l3.1-3.1c0.1-0.1,0.1-0.1,0.2-0.1c0.2,0,0.3,0.1,0.3,0.3
		C-347.9,614.8-347.9,614.8-348,614.9z"/>
</g>
<path fill="#474747" d="M-340.8,612.5l-2.8-2.8c-0.3-0.3-0.7-0.5-1.1-0.5c-0.4,0-0.8,0.2-1.1,0.5l-0.7,0.7l-1.3,1.3l1.3,1.3l3.7,3.7
	l2-2c0.3-0.3,0.4-0.7,0.4-1.1S-340.6,612.8-340.8,612.5z"/>
<g>
	<rect x="-391.4" y="634.2" fill="none" width="46.9" height="63.8"/>
	<rect x="-384.4" y="661.1" fill="none" width="32.9" height="3"/>
	<rect x="-384.4" y="667.1" fill="none" width="32.9" height="3"/>
	<rect x="-384.4" y="673.1" fill="none" width="32.9" height="3"/>
	<polygon fill="none" points="-360.4,685.3 -360.1,685 -384.4,685 -384.4,688 -360.4,688 -360.4,686.1 	"/>
	<polygon fill="none" points="-384.4,679.1 -384.4,682 -357.1,682 -354.1,679.1 	"/>
	<path fill="#FFFFFF" d="M-362.4,637.3v15.8c2,0,15,0,15,0L-362.4,637.3z"/>
	<path fill="#FFFFFF" d="M-352.6,693.1h-0.8h-4.9h-2v-2V688h-24v-3h24.3l0.3-0.3l2.7-2.7h-27.3v-3h30.3l3.6-3.6l0,0l1.4-1.4l0.7-0.7
		l0,0l1.3-1.3c0.2-0.2,0.5-0.4,0.7-0.6v-16.5h-18v-19h-24.9V694h42.9V687l-5.5,5.5L-352.6,693.1z M-384.4,661.1h32.9v3h-32.9V661.1z
		 M-384.4,667.1h32.9v3h-32.9V667.1z M-384.4,673.1h32.9v3h-32.9V673.1z"/>
	<path fill="#FFFFFF" d="M-356.9,686.8l1.1-1.1l2.3,2.3h2v-3h-2.8l-0.1,0.1c-0.1,0.1-0.1,0.1-0.2,0.1c-0.1,0-0.2-0.1-0.2-0.2h-2.4
		l-1.1,1.1v1.9h1.5V686.8z"/>
	<polygon fill="#FFFFFF" points="-352,682 -351.5,681.5 -351.5,679.2 -354.3,682 	"/>
	<polygon fill="#FFFFFF" points="-343.6,681.2 -346.5,678.3 -346.5,684.1 	"/>
	<path fill="#FFFFFF" d="M-354.8,684.8l2.8-2.8h-2.3l-3,3h2.4c0,0,0,0,0,0C-354.9,684.9-354.8,684.9-354.8,684.8z"/>
	<path fill="#FFFFFF" d="M-351.5,679.2v2.3l3.1-3.1c0.1-0.1,0.1-0.1,0.2-0.1c0.2,0,0.3,0.1,0.3,0.3c0,0.1,0,0.1-0.1,0.2l-6.3,6.3
		h2.8v3h-2l0.5,0.5l-1.1,1.1h-1.3V688h-1.5v0h-1.5v3.1h4.9l7-7v-5.8l-2-2L-351.5,679.2z"/>
	<path fill="#FFFFFF" d="M-342.8,680.4l2-2c0.3-0.3,0.4-0.7,0.4-1.1s-0.2-0.8-0.4-1.1l-2.8-2.8c-0.3-0.3-0.7-0.5-1.1-0.5
		c-0.4,0-0.8,0.2-1.1,0.5l-0.7,0.7v2.5L-342.8,680.4z"/>
	<polygon fill="#FFFFFF" points="-346.5,676.8 -346.5,674.2 -347.7,675.5 	"/>
</g>
<rect x="-321.8" y="597.3" fill="none" width="32.9" height="3"/>
<rect x="-321.8" y="603.2" fill="none" width="32.9" height="3"/>
<path fill="none" d="M-295.2,609.2h-26.7v3h24.7c0-0.5,0.2-0.9,0.5-1.4C-296.6,610.8-296,610-295.2,609.2z"/>
<path fill="none" d="M-298.6,615.2h-23.3v3h23.1V616C-298.7,615.8-298.7,615.5-298.6,615.2z"/>
<path fill="none" d="M-297.1,622.4c0-0.4,0.1-0.8,0.3-1.2h-25.1v3h25.5c-0.1-0.1-0.2-0.2-0.3-0.3
	C-296.9,623.4-297.1,622.9-297.1,622.4z"/>
<path fill="#474747" d="M-299.9,573.5v15.8c2,0,15,0,15,0L-299.9,573.5z"/>
<path fill="#474747" d="M-284,626.5c-0.3,1.1-1.2,1.8-2.4,1.8h-2.6c-1.2,0-2.2-0.8-2.4-2c-0.4,0.3-0.9,0.4-1.4,0.4
	c-0.6,0-1.2-0.2-1.7-0.7l-0.1-0.1c-0.6-0.5-1.3-1.2-1.8-1.8h-25.5v-3h25.1c0-0.1,0.1-0.1,0.1-0.2l0,0l0,0l0,0c-1.2-0.2-2-1.2-2-2.4
	v-0.4h-23.1v-3h23.3c0.3-0.8,1-1.4,1.8-1.6l0,0l0,0c-0.3-0.4-0.4-0.9-0.4-1.3c0,0,0-0.1,0-0.1h-24.7v-3h26.7
	c0.7-0.7,1.6-1.3,2.4-1.3c0.5,0,0.9,0.1,1.3,0.4c0-0.1,0-0.1,0-0.2c0.3-1.1,1.2-1.8,2.4-1.8h2.6c1.2,0,2.2,0.9,2.4,2c0,0,0,0,0.1,0
	v-17.1h-18v-19h-24.9v57.9h42.9v-3.8c0,0,0,0-0.1,0C-284,626.4-284,626.5-284,626.5z M-321.8,597.3h32.9v3h-32.9V597.3z
	 M-321.8,603.2h32.9v3h-32.9V603.2z"/>
<circle fill="#474747" cx="-287.7" cy="617.4" r="1"/>
<g>
	<path fill="none" d="M-287.7,614.4c-0.8,0-1.5,0.3-2.1,0.9c-0.6,0.5-0.9,1.3-0.9,2.1c0,0.3,0.1,0.6,0.1,0.8
		c0.4,1.2,1.5,2.2,2.9,2.2c1.7,0,3-1.3,3-3C-284.7,615.7-286.1,614.4-287.7,614.4z"/>
	<path fill="#474747" d="M-279,615.7l-2.1-0.3c-0.1-0.4-0.3-0.8-0.5-1.1c0.4-0.6,0.8-1.1,1.2-1.6c0.1-0.1,0.1-0.2,0.1-0.3
		c0-0.1,0-0.2-0.1-0.3c-0.5-0.7-1.3-1.4-1.9-2c-0.1-0.1-0.2-0.1-0.3-0.1c-0.1,0-0.2,0-0.3,0.1l-1,0.8l-0.7,0.5
		c-0.3-0.2-0.7-0.3-1.1-0.4l-0.3-2.2c0-0.2-0.2-0.4-0.4-0.4h-2.6c-0.2,0-0.4,0.1-0.4,0.3c0,0.2-0.1,0.4-0.1,0.5
		c-0.1,0.5-0.2,1.1-0.2,1.6c-0.4,0.1-0.7,0.3-1.1,0.4l-1.6-1.3c-0.1-0.1-0.2-0.1-0.3-0.1c-0.4,0-2,1.7-2.3,2.1
		c0,0.1-0.1,0.1-0.1,0.2c0,0,0,0.1,0,0.1c0,0.1,0,0.2,0.1,0.3c0.4,0.5,0.9,1.1,1.3,1.6c-0.2,0.3-0.3,0.7-0.4,1c0,0,0,0,0,0.1
		l-2.2,0.3c-0.2,0-0.3,0.2-0.3,0.4v2.2v0.4c0,0.2,0.1,0.4,0.3,0.4l2.1,0.3c0.1,0.4,0.3,0.8,0.5,1.2c-0.2,0.2-0.3,0.4-0.5,0.7
		c-0.2,0.3-0.5,0.6-0.7,0.9c-0.1,0.1-0.1,0.2-0.1,0.3c0,0.1,0,0.2,0.1,0.3c0.4,0.5,0.9,1,1.4,1.5c0.2,0.2,0.3,0.3,0.5,0.5
		c0.1,0.1,0.2,0.1,0.3,0.1c0.1,0,0.2,0,0.3-0.1l0.6-0.5l1-0.8c0.3,0.2,0.7,0.3,1.1,0.4l0.1,0.3l0.3,1.8c0,0.2,0.2,0.4,0.4,0.4h2.6
		c0.2,0,0.4-0.1,0.4-0.3c0.2-0.7,0.3-1.5,0.3-2.2c0.4-0.1,0.7-0.3,1.1-0.4l0.6,0.5l1,0.8c0.1,0.1,0.2,0.1,0.3,0.1
		c0.4,0,2-1.7,2.3-2.1c0.1-0.1,0.1-0.2,0.1-0.3c0-0.1,0-0.2-0.1-0.3c-0.4-0.5-0.9-1-1.3-1.6c0.2-0.3,0.3-0.7,0.5-1.1l2.2-0.3
		c0.2,0,0.3-0.2,0.3-0.4v-2.6C-278.7,615.9-278.8,615.7-279,615.7z M-287.7,620.4c-1.4,0-2.5-0.9-2.9-2.2c-0.1-0.3-0.1-0.5-0.1-0.8
		c0-0.8,0.4-1.6,0.9-2.1c0.5-0.5,1.3-0.9,2.1-0.9c1.7,0,3,1.3,3,3C-284.7,619-286.1,620.4-287.7,620.4z"/>
</g>
<rect x="-328.8" y="634.2" fill="none" width="46.9" height="63.8"/>
<rect x="-321.8" y="661.1" fill="none" width="32.9" height="3"/>
<rect x="-321.8" y="667.1" fill="none" width="32.9" height="3"/>
<path fill="none" d="M-295.2,673.1h-26.7v3h24.7c0-0.5,0.2-0.9,0.5-1.4C-296.6,674.6-296,673.8-295.2,673.1z"/>
<path fill="none" d="M-298.6,679.1h-23.3v3h23.1v-2.2C-298.7,679.6-298.7,679.3-298.6,679.1z"/>
<path fill="none" d="M-297.1,686.3c0-0.4,0.1-0.8,0.3-1.2h-25.1v3h25.5c-0.1-0.1-0.2-0.2-0.3-0.3
	C-296.9,687.3-297.1,686.8-297.1,686.3z"/>
<path fill="#FFFFFF" d="M-299.9,637.3v15.8c2,0,15,0,15,0L-299.9,637.3z"/>
<path fill="#FFFFFF" d="M-284,690.4c-0.3,1.1-1.2,1.8-2.4,1.8h-2.6c-1.2,0-2.2-0.8-2.4-2c-0.4,0.3-0.9,0.4-1.4,0.4
	c-0.6,0-1.2-0.2-1.7-0.7l-0.1-0.1c-0.6-0.5-1.3-1.2-1.8-1.8h-25.5v-3h25.1c0-0.1,0.1-0.1,0.1-0.2l0,0l0,0l0,0c-1.2-0.2-2-1.2-2-2.4
	V682h-23.1v-3h23.3c0.3-0.8,1-1.4,1.8-1.6l0,0l0,0c-0.3-0.4-0.4-0.9-0.4-1.3c0,0,0-0.1,0-0.1h-24.7v-3h26.7c0.7-0.7,1.6-1.3,2.4-1.3
	c0.5,0,0.9,0.1,1.3,0.4c0-0.1,0-0.1,0-0.2c0.3-1.1,1.2-1.8,2.4-1.8h2.6c1.2,0,2.2,0.9,2.4,2c0,0,0,0,0.1,0v-17.1h-18v-19h-24.9V694
	h42.9v-3.8c0,0,0,0-0.1,0C-284,690.3-284,690.3-284,690.4z M-321.8,661.1h32.9v3h-32.9V661.1z M-321.8,667.1h32.9v3h-32.9V667.1z"/>
<circle fill="#FFFFFF" cx="-287.7" cy="681.2" r="1"/>
<g>
	<path fill="none" d="M-287.7,678.2c-0.8,0-1.5,0.3-2.1,0.9c-0.6,0.5-0.9,1.3-0.9,2.1c0,0.3,0.1,0.6,0.1,0.8
		c0.4,1.2,1.5,2.2,2.9,2.2c1.7,0,3-1.3,3-3C-284.7,679.6-286.1,678.2-287.7,678.2z"/>
	<path fill="#FFFFFF" d="M-279,679.5l-2.1-0.3c-0.1-0.4-0.3-0.8-0.5-1.1c0.4-0.6,0.8-1.1,1.2-1.6c0.1-0.1,0.1-0.2,0.1-0.3
		c0-0.1,0-0.2-0.1-0.3c-0.5-0.7-1.3-1.4-1.9-2c-0.1-0.1-0.2-0.1-0.3-0.1c-0.1,0-0.2,0-0.3,0.1l-1,0.8l-0.7,0.5
		c-0.3-0.2-0.7-0.3-1.1-0.4l-0.3-2.2c0-0.2-0.2-0.4-0.4-0.4h-2.6c-0.2,0-0.4,0.1-0.4,0.3c0,0.2-0.1,0.4-0.1,0.5
		c-0.1,0.5-0.2,1.1-0.2,1.6c-0.4,0.1-0.7,0.3-1.1,0.4l-1.6-1.3c-0.1-0.1-0.2-0.1-0.3-0.1c-0.4,0-2,1.7-2.3,2.1
		c0,0.1-0.1,0.1-0.1,0.2c0,0,0,0.1,0,0.1c0,0.1,0,0.2,0.1,0.3c0.4,0.5,0.9,1.1,1.3,1.6c-0.2,0.3-0.3,0.7-0.4,1c0,0,0,0,0,0.1
		l-2.2,0.3c-0.2,0-0.3,0.2-0.3,0.4v2.2v0.4c0,0.2,0.1,0.4,0.3,0.4l2.1,0.3c0.1,0.4,0.3,0.8,0.5,1.2c-0.2,0.2-0.3,0.4-0.5,0.7
		c-0.2,0.3-0.5,0.6-0.7,0.9c-0.1,0.1-0.1,0.2-0.1,0.3c0,0.1,0,0.2,0.1,0.3c0.4,0.5,0.9,1,1.4,1.5c0.2,0.2,0.3,0.3,0.5,0.5
		c0.1,0.1,0.2,0.1,0.3,0.1c0.1,0,0.2,0,0.3-0.1l0.6-0.5l1-0.8c0.3,0.2,0.7,0.3,1.1,0.4l0.1,0.3l0.3,1.8c0,0.2,0.2,0.4,0.4,0.4h2.6
		c0.2,0,0.4-0.1,0.4-0.3c0.2-0.7,0.3-1.5,0.3-2.2c0.4-0.1,0.7-0.3,1.1-0.4l0.6,0.5l1,0.8c0.1,0.1,0.2,0.1,0.3,0.1
		c0.4,0,2-1.7,2.3-2.1c0.1-0.1,0.1-0.2,0.1-0.3c0-0.1,0-0.2-0.1-0.3c-0.4-0.5-0.9-1-1.3-1.6c0.2-0.3,0.3-0.7,0.5-1.1l2.2-0.3
		c0.2,0,0.3-0.2,0.3-0.4v-2.6C-278.7,679.7-278.8,679.5-279,679.5z M-287.7,684.2c-1.4,0-2.5-0.9-2.9-2.2c-0.1-0.3-0.1-0.5-0.1-0.8
		c0-0.8,0.4-1.6,0.9-2.1c0.5-0.5,1.3-0.9,2.1-0.9c1.7,0,3,1.3,3,3C-284.7,682.9-286.1,684.2-287.7,684.2z"/>
</g>
<polygon fill="none" points="-233.4,612.2 -228.3,612.2 -227,611 -227,609.2 -236.3,609.2 -235.4,610.2 "/>
<rect x="-259.9" y="597.3" fill="none" width="32.9" height="3"/>
<polygon fill="none" points="-237.3,609.2 -259.9,609.2 -259.9,612.2 -240.3,612.2 -238.2,610.2 "/>
<polygon fill="none" points="-243.6,615.6 -243.2,615.2 -259.9,615.2 -259.9,618.2 -241,618.2 -242.2,617 "/>
<polygon fill="none" points="-259.9,621.2 -259.9,624.2 -235,624.2 -238,621.2 "/>
<rect x="-259.9" y="603.2" fill="none" width="32.9" height="3"/>
<polygon fill="#474747" points="-230.8,614.8 -228.3,612.2 -233.4,612.2 "/>
<path fill="#474747" d="M-238,573.5v15.8c2,0,15,0,15,0L-238,573.5z"/>
<path fill="#474747" d="M-230.8,628.4l-1.4-1.4l-2.8-2.8h-24.9v-3h21.9l-3-3h-18.9v-3h16.7l1-1l2-2h-19.7v-3h22.7l0.5-0.5l0.5,0.5
	h9.4v1.7l4.8-4.8l0.2-0.2v-14.7h-18v-19h-24.9v57.9h42.9v-10.5l-7.4,7.4L-230.8,628.4z M-259.9,597.3h32.9v3h-32.9V597.3z
	 M-259.9,603.2h32.9v3h-32.9V603.2z"/>
<polygon fill="#474747" points="-220.8,607.6 -222,608.8 -228.4,615.2 -230.8,617.6 -233.2,615.2 -236.2,612.2 -236.8,611.6 
	-237.4,612.2 -240.4,615.2 -240.8,615.6 -238.2,618.2 -235.2,621.2 -232.2,624.2 -230.8,625.6 -229.4,624.2 -227,621.8 -222,616.8 
	-216.8,611.6 "/>
<rect x="-266.9" y="634.2" fill="none" width="46.9" height="63.8"/>
<polygon fill="none" points="-233.4,676.1 -228.3,676.1 -227,674.8 -227,673.1 -236.3,673.1 -235.4,674 "/>
<rect x="-259.9" y="661.1" fill="none" width="32.9" height="3"/>
<polygon fill="none" points="-237.3,673.1 -259.9,673.1 -259.9,676.1 -240.3,676.1 -238.2,674 "/>
<polygon fill="none" points="-243.6,679.4 -243.2,679.1 -259.9,679.1 -259.9,682 -241,682 -242.2,680.9 "/>
<polygon fill="none" points="-259.9,685 -259.9,688 -235,688 -238,685 "/>
<rect x="-259.9" y="667.1" fill="none" width="32.9" height="3"/>
<polygon fill="#FFFFFF" points="-230.8,678.6 -228.3,676.1 -233.4,676.1 "/>
<path fill="#FFFFFF" d="M-238,637.3v15.8c2,0,15,0,15,0L-238,637.3z"/>
<path fill="#FFFFFF" d="M-230.8,692.3l-1.4-1.4l-2.8-2.8h-24.9v-3h21.9l-3-3h-18.9v-3h16.7l1-1l2-2h-19.7v-3h22.7l0.5-0.5l0.5,0.5
	h9.4v1.7l4.8-4.8l0.2-0.2v-14.7h-18v-19h-24.9V694h42.9v-10.5l-7.4,7.4L-230.8,692.3z M-259.9,661.1h32.9v3h-32.9V661.1z
	 M-259.9,667.1h32.9v3h-32.9V667.1z"/>
<polygon fill="#FFFFFF" points="-220.8,671.4 -222,672.7 -228.4,679.1 -230.8,681.4 -233.2,679.1 -236.2,676.1 -236.8,675.4 
	-237.4,676.1 -240.4,679.1 -240.8,679.4 -238.2,682 -235.2,685 -232.2,688 -230.8,689.4 -229.4,688 -227,685.6 -222,680.7 
	-216.8,675.4 "/>
<g>
	<polygon fill="#474747" points="-156.3,485.4 -156.3,457.3 -172.8,471.5 	"/>
	<polygon fill="#474747" points="-156.4,454.6 -203.2,454.6 -179.8,474.9 	"/>
	<polygon fill="#474747" points="-203.5,457.1 -203.5,485.5 -186.8,471.5 	"/>
	<polygon fill="#474747" points="-179.2,477 -180.4,477 -185.8,472.4 -203.5,487.2 -203.5,487.4 -156.3,487.4 -156.3,487.1 
		-173.9,472.4 	"/>
</g>
<g>
	<polygon fill="#FFFFFF" points="-156.3,550.9 -156.3,522.7 -172.8,536.9 	"/>
	<polygon fill="#FFFFFF" points="-156.4,520.1 -203.2,520.1 -179.8,540.3 	"/>
	<polygon fill="#FFFFFF" points="-203.5,522.6 -203.5,551 -186.8,536.9 	"/>
	<polygon fill="#FFFFFF" points="-179.2,542.4 -180.4,542.4 -185.8,537.8 -203.5,552.7 -203.5,552.8 -156.3,552.8 -156.3,552.6 
		-173.9,537.8 	"/>
</g>
</svg>
