<?xml version="1.0" encoding="utf-8"?>
<!-- Generator: Adobe Illustrator 17.0.0, SVG Export Plug-In . SVG Version: 6.00 Build 0)  -->
<!DOCTYPE svg PUBLIC "-//W3C//DTD SVG 1.1//EN" "http://www.w3.org/Graphics/SVG/1.1/DTD/svg11.dtd">
<svg version="1.1" id="Layer_1" xmlns="http://www.w3.org/2000/svg" xmlns:xlink="http://www.w3.org/1999/xlink" x="0px" y="0px"
	 width="192px" height="128px" viewBox="0 0 192 128" enable-background="new 0 0 192 128" xml:space="preserve">
<rect display="none" fill="#ADAD2D" width="192" height="128"/>
<g>
	<g>
		<g>
			<path fill="#606060" d="M87.845,53.186c-1.23,0-2.389-0.48-3.262-1.352c-0.872-0.873-1.352-2.031-1.352-3.264v-2.411
				c0-0.284,0-0.812,0.236-1.438c0.242-0.643,0.674-1.26,1.322-1.888c2.241-2.179,5.703-4.568,7.087-5.494
				c2.998-2.007,4.885-3.024,5.61-3.024c0.73,0,1.418,0.382,2.289,0.865c0.258,0.144,0.536,0.297,0.834,0.452
				c0.985,0.509,2.337,1.094,4.069,1.094c1.703,0,2.938-0.564,3.962-1.093c0.326-0.168,0.621-0.336,0.892-0.49
				c0.782-0.444,1.458-0.827,2.177-0.827c0.263,0,1.063,0,5.583,3.024c1.37,0.917,4.802,3.289,7.074,5.495
				c0.642,0.623,1.072,1.241,1.316,1.888c0.229,0.613,0.229,1.129,0.229,1.438v2.411c0,1.232-0.48,2.391-1.352,3.264
				c-0.875,0.872-2.034,1.352-3.264,1.352H87.845z"/>
			<path fill="#FFFFFF" d="M111.711,35.314c0.475,0,2.579,1.217,5.027,2.855c2.446,1.638,5.196,3.694,6.933,5.381
				c0.606,0.589,0.915,1.092,1.077,1.522c0.161,0.431,0.165,0.788,0.165,1.086c0,1.157,0,1.76,0,2.072c0,0.315,0,0.338,0,0.338
				c0,0.998-0.404,1.902-1.059,2.557c-0.655,0.653-1.557,1.059-2.556,1.059h-8.436h-7.091h-9.489h-8.436
				c-0.997,0-1.901-0.406-2.555-1.059c-0.655-0.655-1.058-1.559-1.058-2.557c0,0,0-0.024,0-0.338c0-0.313,0-0.916,0-2.072
				c0-0.298,0.01-0.656,0.171-1.086c0.162-0.431,0.475-0.933,1.083-1.522c1.735-1.687,4.499-3.743,6.947-5.381
				c2.447-1.638,4.579-2.855,5.054-2.855c0.64,0,1.498,0.603,2.665,1.205c1.166,0.603,2.645,1.205,4.528,1.205
				c1.884,0,3.254-0.602,4.421-1.205C110.268,35.917,111.07,35.314,111.711,35.314 M111.711,33.314
				c-0.983,0-1.803,0.465-2.672,0.958c-0.26,0.148-0.544,0.309-0.856,0.47c-0.963,0.497-2.026,0.983-3.504,0.983
				c-1.508,0-2.671-0.496-3.61-0.982c-0.29-0.15-0.559-0.299-0.809-0.438c-0.919-0.51-1.786-0.991-2.775-0.991
				c-0.488,0-1.396,0-6.166,3.194c-1.406,0.941-4.927,3.371-7.228,5.609c-0.754,0.731-1.264,1.467-1.56,2.25
				c-0.3,0.799-0.3,1.47-0.3,1.792v2.072v0.338c0,1.5,0.584,2.911,1.644,3.971c1.063,1.061,2.472,1.645,3.969,1.645h8.436h9.489
				h7.091h8.436c1.497,0,2.906-0.583,3.968-1.643c1.063-1.063,1.647-2.473,1.647-3.973v-0.338v-2.072c0-0.352,0-1.007-0.291-1.786
				c-0.297-0.791-0.806-1.528-1.557-2.257c-2.329-2.262-5.82-4.675-7.213-5.608C113.078,33.314,112.222,33.314,111.711,33.314
				L111.711,33.314z"/>
		</g>
		<g>
			<path fill="#606060" d="M104.566,37.219c-6.531,0-11.845-5.99-11.845-13.353c0-7.362,5.313-13.352,11.845-13.352
				c6.532,0,11.847,5.989,11.847,13.352C116.413,31.229,111.099,37.219,104.566,37.219z"/>
			<path fill="#FFFFFF" d="M104.566,11.514c5.991,0,10.847,5.531,10.847,12.351c0,6.821-4.856,12.353-10.847,12.353
				c-5.99,0-10.845-5.532-10.845-12.353C93.722,17.045,98.577,11.514,104.566,11.514 M104.566,9.514
				c-7.083,0-12.845,6.438-12.845,14.351c0,7.914,5.762,14.353,12.845,14.353c7.084,0,12.847-6.439,12.847-14.353
				C117.413,15.952,111.65,9.514,104.566,9.514L104.566,9.514z"/>
		</g>
	</g>
	<g>
		<g>
			<path fill="#494949" d="M70.987,55.186c-1.338,0-2.597-0.522-3.545-1.469c-0.948-0.947-1.469-2.208-1.469-3.548v-2.679
				c0-0.308,0-0.881,0.254-1.559c0.264-0.7,0.736-1.372,1.443-2.058c2.485-2.416,6.324-5.065,7.859-6.092
				c2.277-1.524,5.196-3.342,6.171-3.342c0.782,0,1.536,0.418,2.49,0.948c0.288,0.159,0.597,0.331,0.929,0.502
				c1.106,0.572,2.625,1.228,4.573,1.228c1.917,0,3.304-0.633,4.453-1.228c0.363-0.187,0.692-0.374,0.994-0.545
				c0.892-0.505,1.596-0.905,2.366-0.905c0.284,0,1.147,0,6.142,3.342c1.52,1.018,5.327,3.647,7.844,6.092
				c0.702,0.682,1.172,1.355,1.436,2.057c0.247,0.66,0.247,1.201,0.247,1.559v2.679c0,1.34-0.522,2.6-1.47,3.548
				c-0.951,0.948-2.21,1.47-3.547,1.47H70.987z"/>
			<path fill="#FFFFFF" d="M97.504,35.44c0.527,0,2.865,1.353,5.586,3.173c2.718,1.819,5.773,4.104,7.703,5.978
				c0.674,0.654,1.017,1.213,1.196,1.692c0.179,0.479,0.183,0.876,0.183,1.207c0,1.285,0,1.955,0,2.303c0,0.35,0,0.376,0,0.376
				c0,1.108-0.449,2.113-1.177,2.841c-0.727,0.726-1.73,1.177-2.84,1.177h-9.373h-7.879H80.36h-9.373
				c-1.107,0-2.112-0.451-2.839-1.177c-0.728-0.728-1.176-1.732-1.176-2.841c0,0,0-0.026,0-0.376c0-0.348,0-1.018,0-2.303
				c0-0.331,0.011-0.729,0.19-1.207c0.181-0.479,0.528-1.037,1.203-1.692c1.928-1.874,4.999-4.159,7.719-5.978
				c2.719-1.82,5.088-3.173,5.615-3.173c0.711,0,1.664,0.67,2.961,1.339c1.296,0.67,2.939,1.339,5.031,1.339
				c2.094,0,3.615-0.669,4.912-1.339C95.901,36.109,96.792,35.44,97.504,35.44 M97.504,33.44c-1.034,0-1.92,0.503-2.859,1.035
				c-0.291,0.165-0.609,0.346-0.958,0.526c-1.094,0.565-2.303,1.116-3.995,1.116c-1.723,0-3.046-0.564-4.113-1.116
				c-0.324-0.167-0.624-0.334-0.904-0.489c-1.038-0.576-1.934-1.073-2.976-1.073c-0.482,0-1.484,0-6.728,3.511
				c-1.557,1.042-5.456,3.733-8,6.206c-0.814,0.789-1.364,1.581-1.68,2.419c-0.319,0.85-0.319,1.568-0.319,1.913v2.303v0.376
				c0,1.608,0.626,3.119,1.761,4.255c1.139,1.137,2.649,1.763,4.253,1.763h9.373h10.544h7.879h9.373
				c1.604,0,3.114-0.625,4.252-1.761c1.138-1.138,1.764-2.65,1.764-4.257v-0.376v-2.303c0-0.377,0-1.079-0.309-1.907
				c-0.318-0.847-0.866-1.64-1.677-2.427c-2.575-2.501-6.441-5.173-7.984-6.206C98.955,33.44,98.011,33.44,97.504,33.44
				L97.504,33.44z"/>
		</g>
		<g>
			<path fill="#494949" d="M89.566,37.444c-7.196,0-13.05-6.606-13.05-14.726c0-8.119,5.854-14.724,13.05-14.724
				c7.197,0,13.052,6.605,13.052,14.724C102.618,30.838,96.763,37.444,89.566,37.444z"/>
			<path fill="#FFFFFF" d="M89.566,8.995c6.656,0,12.052,6.146,12.052,13.724c0,7.579-5.396,13.726-12.052,13.726
				c-6.655,0-12.05-6.147-12.05-13.726C77.516,15.141,82.911,8.995,89.566,8.995 M89.566,6.995c-7.747,0-14.05,7.054-14.05,15.724
				c0,8.671,6.303,15.726,14.05,15.726c7.748,0,14.052-7.054,14.052-15.726C103.618,14.049,97.314,6.995,89.566,6.995L89.566,6.995z
				"/>
		</g>
	</g>
</g>
<g>
	<g>
		<g>
			<polygon fill="#FFFFFF" points="182.329,21.313 168.943,21.313 168.943,9.166 170.644,9.166 165.611,2.226 154.126,2.226 
				149.042,9.166 150.656,9.166 150.656,21.313 137.4,21.313 132.333,28.183 134.033,28.183 134.068,61.226 185.566,61.226 
				185.601,28.183 187.333,28.183 			"/>
		</g>
	</g>
	<g>
		<path fill="#474747" d="M133.069,62.148l-0.035-33h-2.659l6.514-9h12.956v-10h-2.765l6.537-9h12.507l6.471,9h-2.417v10h12.666
			l6.434,9H186.6l-0.035,33H133.069z M166.248,55.148v-4h15.439v-22h-43.351v22h15.438v4h1.86v-14h8.754v14H166.248z
			 M164.318,20.148v-10h-9.579v10h0.895v-9h7.79v9H164.318z M173.002,50.148v-9h7.79v9H173.002z M165.283,50.148v-9h6.825v9H165.283
			z M147.915,50.148v-9h6.825v9H147.915z M139.231,50.148v-9h7.789v9H139.231z M173.002,40.148v-9h7.79v9H173.002z M165.283,40.148
			v-9h6.825v9H165.283z M155.634,40.148v-9h8.754v9H155.634z M147.915,40.148v-9h6.825v9H147.915z M139.231,40.148v-9h7.789v9
			H139.231z"/>
		<path fill="#FFFFFF" d="M165.611,2.148l5.033,7h-1.466v12h13.151l5.004,7h-1.733l-0.035,33h-18.317v-9h15.439v-24h-45.351v24
			h15.439v9h-18.707l-0.034-33h-1.7l5.066-7h13.445v-12h-1.803l5.084-7H165.611 M153.74,21.148h11.579v-12H153.74V21.148
			 M162.424,12.148v7h-5.789v-7H162.424 M179.792,32.148v7h-5.789v-7H179.792 M171.108,32.148v7h-4.825v-7H171.108 M163.389,32.148
			v7h-6.754v-7H163.389 M153.74,32.148v7h-4.825v-7H153.74 M146.02,32.148v7h-5.789v-7H146.02 M179.792,42.148v7h-5.789v-7H179.792
			 M171.108,42.148v7h-4.825v-7H171.108 M163.389,42.148v12h-6.754v-12H163.389 M153.74,42.148v7h-4.825v-7H153.74 M146.02,42.148v7
			h-5.789v-7H146.02 M165.318,56.148v2h-10.614v-2H165.318 M165.318,59.148v2h-10.614v-2H165.318 M166.636,0.148h-1.025h-11.485
			h-1.019l-0.599,0.825l-5.084,7l-2.306,3.175h3.727v8H137.4h-1.021l-0.599,0.827l-5.066,7l-2.296,3.173h3.618l0.032,31.002
			l0.002,1.998h1.998h18.707h2h10.474h2h18.317h1.998l0.002-1.998l0.033-31.002h3.623l-2.261-3.163l-5.004-7l-0.598-0.837h-1.029
			h-11.151v-8h3.367l-2.278-3.168l-5.033-7L166.636,0.148L166.636,0.148z"/>
	</g>
</g>
<g>
	<defs>
		<rect id="SVGID_1_" x="8.25" width="47" height="64"/>
	</defs>
	<clipPath id="SVGID_2_">
		<use xlink:href="#SVGID_1_"  overflow="visible"/>
	</clipPath>
	<g clip-path="url(#SVGID_2_)">
		<path fill="#474747" d="M9.25,61V1h27v19V0.637L54.573,20H54.25v41H9.25z M47.25,53v-1h-31v1H47.25z M47.25,47v-1h-31v1H47.25z
			 M47.25,41v-1h-31v1H47.25z M47.25,35v-1h-31v1H47.25z M47.25,29v-1h-31v1H47.25z"/>
		<path fill="#FFFFFF" d="M35.25,2v19h18v39h-43V2H35.25 M15.25,30h33v-3h-33V30 M15.25,36h33v-3h-33V36 M15.25,42h33v-3h-33V42
			 M15.25,48h33v-3h-33V48 M15.25,54h33v-3h-33V54 M37.25,3.149L52.25,19c0,0-13,0-15,0V3.149 M35.25-1.874V0h-25h-2v2v58v2h2h43h2
			v-2V21h1.646l-1.646-1.74V19h-0.246l-1.301-1.375l-15-15.851L37.25,0.239V0h-0.226L35.25-1.874L35.25-1.874z"/>
	</g>
</g>
<g>
	<g>
		<defs>
			<rect id="SVGID_3_" x="136" y="64" width="47" height="64"/>
		</defs>
		<clipPath id="SVGID_4_">
			<use xlink:href="#SVGID_3_"  overflow="visible"/>
		</clipPath>
		<g clip-path="url(#SVGID_4_)">
			<path fill="#474747" d="M137,125V65h27v19V64.637L182.323,84H182v41H137z M175,117v-1h-31v1H175z M175,111v-1h-31v1H175z
				 M175,105v-1h-31v1H175z M175,99v-1h-31v1H175z M175,93v-1h-31v1H175z"/>
			<path fill="#FFFFFF" d="M163,66v19h18v39h-43V66H163 M143,94h33v-3h-33V94 M143,100h33v-3h-33V100 M143,106h33v-3h-33V106
				 M143,112h33v-3h-33V112 M143,118h33v-3h-33V118 M165,67.149L180,83c0,0-13,0-15,0V67.149 M163,62.126V64h-25h-2v2v58v2h2h43h2
				v-2V85h1.646L183,83.26V83h-0.246l-1.301-1.375l-15-15.851L165,64.239V64h-0.226L163,62.126L163,62.126z"/>
		</g>
	</g>
	<g>
		<polygon fill="#474747" points="162.211,111 167.625,105.586 173.625,111.586 183.625,101.586 189.039,107 173.625,122.414 		"/>
		<path fill="#FFFFFF" d="M183.625,103l4,4l-14,14l-10-10l4-4l6,6L183.625,103 M183.625,100.172l-1.414,1.414l-8.586,8.586
			l-4.586-4.586l-1.414-1.414l-1.414,1.414l-4,4L160.797,111l1.414,1.414l10,10l1.414,1.414l1.414-1.414l14-14l1.414-1.414
			l-1.414-1.414l-4-4L183.625,100.172L183.625,100.172z"/>
	</g>
</g>
<g>
	<g>
		<defs>
			<rect id="SVGID_5_" x="72" y="64" width="47" height="64"/>
		</defs>
		<clipPath id="SVGID_6_">
			<use xlink:href="#SVGID_5_"  overflow="visible"/>
		</clipPath>
		<g clip-path="url(#SVGID_6_)">
			<path fill="#474747" d="M73,125V65h27v19V64.637L118.323,84H118v41H73z M111,117v-1H80v1H111z M111,111v-1H80v1H111z M111,105v-1
				H80v1H111z M111,99v-1H80v1H111z M111,93v-1H80v1H111z"/>
			<path fill="#FFFFFF" d="M99,66v19h18v39H74V66H99 M79,94h33v-3H79V94 M79,100h33v-3H79V100 M79,106h33v-3H79V106 M79,112h33v-3
				H79V112 M79,118h33v-3H79V118 M101,67.149L116,83c0,0-13,0-15,0V67.149 M99,62.126V64H74h-2v2v58v2h2h43h2v-2V85h1.646L119,83.26
				V83h-0.246l-1.301-1.375l-15-15.851L101,64.239V64h-0.226L99,62.126L99,62.126z"/>
		</g>
	</g>
	<g>
		<g>
			<path fill="#474747" d="M114.277,122c-0.723,0-1.331-0.53-1.415-1.233l-0.234-1.538c-0.009-0.003-0.019-0.007-0.028-0.011
				l-1.176,0.891c-0.209,0.185-0.546,0.309-0.897,0.309c-0.368,0-0.732-0.154-1-0.422l-0.075-0.065
				c-0.64-0.579-1.437-1.299-1.961-2.024c-0.179-0.249-0.272-0.543-0.272-0.855c0-0.303,0.093-0.588,0.277-0.848
				c0.201-0.271,0.396-0.521,0.593-0.771c0.097-0.124,0.194-0.247,0.29-0.372c-0.021-0.047-0.041-0.095-0.06-0.143l-1.548-0.229
				c-0.704-0.124-1.194-0.715-1.194-1.412v-2.601c0-0.661,0.492-1.276,1.119-1.402l1.642-0.248c0.01-0.023,0.02-0.047,0.03-0.071
				c-0.289-0.383-0.583-0.747-0.865-1.089c-0.283-0.332-0.344-0.683-0.344-0.916c0-0.447,0.223-0.755,0.296-0.856
				c0.018-0.025,1.934-2.511,3.07-2.511c0.315,0,0.628,0.11,0.905,0.317l1.147,0.89c0.004-0.002,0.008-0.003,0.012-0.005
				c0.065-0.565,0.145-1.142,0.297-1.713c0.156-0.625,0.729-1.071,1.388-1.071h2.602c0.723,0,1.331,0.53,1.415,1.233l0.234,1.537
				c0.01,0.004,0.02,0.008,0.03,0.013l1.151-0.866c0.247-0.214,0.577-0.335,0.919-0.335c0.339,0,0.674,0.127,0.944,0.358
				l0.219,0.201c0.613,0.563,1.375,1.264,1.878,1.971c0.158,0.185,0.267,0.496,0.267,0.838c0,0.303-0.093,0.588-0.277,0.848
				c-0.2,0.271-0.395,0.519-0.59,0.769c-0.098,0.124-0.195,0.249-0.292,0.374c0.02,0.045,0.039,0.09,0.057,0.135l1.555,0.237
				c0.699,0.124,1.189,0.715,1.189,1.411v2.601c0,0.678-0.492,1.282-1.144,1.405l-1.624,0.246c-0.009,0.021-0.018,0.042-0.026,0.062
				c0.285,0.377,0.579,0.735,0.867,1.085c0.218,0.254,0.345,0.589,0.345,0.928c0,0.345-0.118,0.656-0.351,0.924l0,0
				c0.002,0-1.906,2.443-3.017,2.443c-0.282,0-0.564-0.087-0.838-0.26l-0.083-0.059l-1.134-0.887
				c-0.003,0.001-0.006,0.002-0.009,0.003c-0.065,0.565-0.145,1.143-0.297,1.714c-0.156,0.624-0.729,1.07-1.388,1.07H114.277z
				 M115.578,110c-1.103,0-2,0.897-2,2s0.897,2,2,2s2-0.897,2-2S116.681,110,115.578,110z"/>
			<path fill="#FFFFFF" d="M116.879,103c0.211,0,0.398,0.152,0.422,0.352l0.328,2.156c0.363,0.117,0.715,0.258,1.054,0.433
				l1.665-1.253c0.07-0.071,0.175-0.106,0.281-0.106c0.105,0,0.211,0.047,0.293,0.117c0.621,0.574,1.441,1.301,1.933,1.992
				c0.059,0.071,0.082,0.164,0.082,0.258c0,0.106-0.035,0.188-0.093,0.27c-0.399,0.539-0.832,1.054-1.231,1.605
				c0.199,0.375,0.363,0.762,0.481,1.149l2.144,0.328c0.199,0.035,0.34,0.222,0.34,0.422v2.601c0,0.176-0.141,0.387-0.328,0.422
				l-2.168,0.328c-0.129,0.375-0.27,0.727-0.457,1.067c0.398,0.574,0.82,1.089,1.254,1.617c0.07,0.082,0.117,0.187,0.117,0.293
				c0,0.105-0.035,0.187-0.106,0.269c-0.281,0.375-1.863,2.098-2.261,2.098c-0.106,0-0.211-0.047-0.305-0.106l-1.617-1.265
				c-0.34,0.176-0.703,0.328-1.067,0.445c-0.082,0.715-0.152,1.477-0.339,2.18c-0.047,0.187-0.211,0.328-0.422,0.328h-2.602
				c-0.211,0-0.398-0.152-0.422-0.352l-0.328-2.156c-0.363-0.117-0.715-0.258-1.054-0.433l-1.653,1.253
				c-0.082,0.071-0.187,0.106-0.293,0.106c-0.105,0-0.211-0.047-0.293-0.129c-0.621-0.562-1.441-1.289-1.933-1.969
				c-0.059-0.082-0.082-0.175-0.082-0.269c0-0.106,0.035-0.188,0.093-0.27c0.399-0.539,0.832-1.054,1.231-1.605
				c-0.199-0.375-0.363-0.762-0.481-1.16l-2.144-0.317c-0.199-0.035-0.34-0.222-0.34-0.422v-2.601c0-0.176,0.141-0.387,0.316-0.422
				l2.18-0.328c0.117-0.375,0.27-0.727,0.457-1.078c-0.398-0.563-0.82-1.09-1.254-1.618c-0.07-0.082-0.117-0.175-0.117-0.281
				c0-0.105,0.047-0.187,0.106-0.269c0.281-0.387,1.863-2.098,2.261-2.098c0.106,0,0.211,0.047,0.305,0.117l1.617,1.254
				c0.34-0.176,0.703-0.328,1.067-0.445c0.082-0.715,0.152-1.477,0.339-2.18c0.047-0.187,0.211-0.328,0.422-0.328H116.879
				 M115.578,115c1.652,0,3-1.348,3-3s-1.348-3-3-3s-3,1.348-3,3S113.926,115,115.578,115 M116.879,101h-2.602
				c-1.118,0-2.089,0.757-2.362,1.841c-0.013,0.051-0.026,0.101-0.039,0.152c-0.429-0.275-0.885-0.411-1.349-0.411
				c-1.737,0-3.793,2.803-3.879,2.923c-0.326,0.453-0.488,0.936-0.488,1.444c0,0.476,0.14,0.931,0.408,1.332l-0.019,0.003
				l-0.047,0.009c-1.097,0.219-1.924,1.244-1.924,2.383v2.601c0,1.183,0.838,2.188,1.993,2.392l0.027,0.005l0.027,0.004l0.018,0.003
				c-0.289,0.438-0.425,0.889-0.425,1.371c0,0.523,0.158,1.019,0.458,1.436c0.591,0.817,1.433,1.577,2.109,2.188l0.084,0.076
				c0.454,0.431,1.041,0.667,1.658,0.667c0.488,0,0.961-0.144,1.36-0.41c0.197,1.144,1.203,1.992,2.39,1.992h2.602
				c1.118,0,2.089-0.757,2.362-1.841c0.013-0.047,0.025-0.095,0.037-0.143c0.431,0.267,0.885,0.402,1.352,0.402
				c1.568,0,3.406-2.297,3.832-2.859c0.35-0.435,0.535-0.954,0.535-1.508c0-0.471-0.141-0.935-0.403-1.334l0.025-0.005
				c1.117-0.209,1.96-1.236,1.96-2.388v-2.601c0-1.183-0.838-2.188-1.993-2.392l-0.073-0.011c0.289-0.438,0.425-0.889,0.425-1.371
				c0-0.532-0.169-1.044-0.478-1.453c-0.562-0.778-1.352-1.504-1.988-2.089l-0.191-0.176l-0.029-0.027l-0.03-0.025
				c-0.45-0.385-1.016-0.596-1.592-0.596c-0.489,0-0.966,0.148-1.359,0.414C119.074,101.85,118.067,101,116.879,101L116.879,101z
				 M115.578,113c-0.551,0-1-0.449-1-1s0.449-1,1-1s1,0.449,1,1S116.129,113,115.578,113L115.578,113z"/>
		</g>
	</g>
</g>
<g>
	<g>
		<defs>
			<rect id="SVGID_7_" x="8" y="64" width="47" height="64"/>
		</defs>
		<clipPath id="SVGID_8_">
			<use xlink:href="#SVGID_7_"  overflow="visible"/>
		</clipPath>
		<g clip-path="url(#SVGID_8_)">
			<path fill="#474747" d="M9,125V65h27v19V64.637L54.323,84H54v41H9z M47,117v-1H16v1H47z M47,111v-1H16v1H47z M47,105v-1H16v1H47z
				 M47,99v-1H16v1H47z M47,93v-1H16v1H47z"/>
			<path fill="#FFFFFF" d="M35,66v19h18v39H10V66H35 M15,94h33v-3H15V94 M15,100h33v-3H15V100 M15,106h33v-3H15V106 M15,112h33v-3
				H15V112 M15,118h33v-3H15V118 M37,67.149L52,83c0,0-13,0-15,0V67.149 M35,62.126V64H10H8v2v58v2h2h43h2v-2V85h1.646L55,83.26V83
				h-0.246l-1.301-1.375l-15-15.851L37,64.239V64h-0.226L35,62.126L35,62.126z"/>
		</g>
	</g>
	<g>
		<g>
			<path fill="#474747" d="M41.856,122v-6.356l10.94-10.94l1.972-1.961c0.448-0.466,1.101-0.742,1.775-0.742
				c0.663,0,1.315,0.271,1.788,0.744l2.791,2.779c0.473,0.492,0.734,1.139,0.734,1.79c0,0.663-0.267,1.311-0.733,1.776L48.213,122
				H41.856z"/>
			<path fill="#FFFFFF" d="M56.543,103c0.404,0,0.796,0.166,1.081,0.451l2.792,2.781c0.274,0.285,0.44,0.677,0.44,1.081
				c0,0.404-0.166,0.796-0.44,1.07l-1.972,1.972l-4.943-4.943l1.972-1.961C55.747,103.166,56.14,103,56.543,103 M52.741,106.172
				l4.943,4.943L47.799,121h-4.943v-4.943L52.741,106.172 M46.658,115.178c0.071,0,0.143-0.024,0.202-0.083l6.44-6.44
				c0.059-0.059,0.083-0.131,0.083-0.202c0-0.154-0.107-0.262-0.262-0.262c-0.071,0-0.143,0.024-0.202,0.083l-6.44,6.44
				c-0.059,0.059-0.083,0.131-0.083,0.202C46.397,115.071,46.504,115.178,46.658,115.178 M44.377,117.958h1.521v1.521h1.271
				l1.081-1.081l-2.792-2.792l-1.081,1.081V117.958 M56.543,101c-0.946,0-1.861,0.388-2.512,1.066l-1.288,1.28l-0.002-0.002
				l-0.652,0.652l-1.42,1.412l0.004,0.004l-9.231,9.231l-0.586,0.586v0.828V121v2h2h4.943h0.828l0.586-0.586l9.231-9.231
				l1.414-1.414l1.972-1.972c0.652-0.652,1.026-1.557,1.026-2.484c0-0.907-0.364-1.806-0.998-2.466l-2.823-2.813
				C58.379,101.378,57.47,101,56.543,101L56.543,101z"/>
		</g>
	</g>
</g>
</svg>
