<?xml version="1.0" encoding="utf-8"?>
<!-- Generator: Adobe Illustrator 17.0.0, SVG Export Plug-In . SVG Version: 6.00 Build 0)  -->
<!DOCTYPE svg PUBLIC "-//W3C//DTD SVG 1.1//EN" "http://www.w3.org/Graphics/SVG/1.1/DTD/svg11.dtd">
<svg version="1.1" id="_x2014_ÎÓÈ_1" xmlns="http://www.w3.org/2000/svg" xmlns:xlink="http://www.w3.org/1999/xlink" x="0px"
	 y="0px" width="347.974px" height="72px" viewBox="0 0 347.974 72" enable-background="new 0 0 347.974 72" xml:space="preserve">
<rect x="1081.291" y="3893.774" fill="none" width="4647.334" height="1095.347"/>
<text transform="matrix(1 0 0 1 1081.291 4204.3271)"><tspan x="0" y="0" fill="#231F20" font-family="'PTSans-Bold'" font-size="443.6486">medborgar</tspan><tspan x="2066.93" y="0" fill="#231F20" font-family="'PTSans-Regular'" font-size="443.6486">initiativ.fi</tspan></text>
<g>
	<g>
		<g>
			<path fill="#FFFFFF" d="M57.035,60.872c-3.47,3.758-8.119,8.182-11.029,9.81c-0.03,0.016-0.059,0.03-0.089,0.043
				c6.712-1.971,12.614-5.837,17.084-10.981C62.317,58.29,60.007,57.652,57.035,60.872z"/>
		</g>
		<path fill="none" d="M20.264,60.986c0.043,0.684,0.288,1.267,0.711,1.734C20.553,62.252,20.307,61.669,20.264,60.986z"/>
		<path fill="none" d="M48.443,48.419c0.001-0.001,0.003-0.002,0.004-0.004C48.446,48.417,48.444,48.418,48.443,48.419z"/>
		<path fill="none" d="M50.039,47.637c0.027-0.005,0.055-0.008,0.083-0.014C50.095,47.629,50.067,47.632,50.039,47.637z"/>
		<path fill="none" d="M31.899,61.892c0.009-0.004,0.017-0.01,0.025-0.013C31.915,61.883,31.908,61.888,31.899,61.892z"/>
		<path fill="none" d="M48.708,48.231c0.005-0.004,0.01-0.007,0.014-0.009C48.717,48.225,48.712,48.227,48.708,48.231z"/>
		<path fill="none" d="M49.241,47.92c0.013-0.006,0.027-0.012,0.04-0.018C49.268,47.909,49.254,47.914,49.241,47.92z"/>
		<path fill="none" d="M49.775,47.706c0.022-0.007,0.044-0.013,0.067-0.019C49.819,47.694,49.797,47.699,49.775,47.706z"/>
		<path fill="none" d="M48.974,48.064c0.009-0.005,0.017-0.009,0.024-0.014C48.991,48.055,48.982,48.06,48.974,48.064z"/>
		<path fill="none" d="M49.507,47.801c0.018-0.008,0.036-0.013,0.054-0.02C49.544,47.788,49.525,47.793,49.507,47.801z"/>
		<path fill="none" d="M30.821,62.427c0.069-0.032,0.14-0.066,0.21-0.1C30.961,62.361,30.891,62.394,30.821,62.427z"/>
		<path fill="none" d="M32.781,61.398c0.076-0.044,0.15-0.087,0.225-0.132C32.931,61.311,32.857,61.354,32.781,61.398z"/>
		<path fill="none" d="M24.094,63.982c0.092,0.006,0.183,0.012,0.279,0.015C24.278,63.994,24.186,63.988,24.094,63.982z"/>
		<path fill="none" d="M25.56,63.958c0.083-0.007,0.166-0.015,0.249-0.024C25.725,63.943,25.643,63.951,25.56,63.958z"/>
		<path fill="none" d="M23.36,63.893c0.145,0.025,0.294,0.047,0.448,0.063C23.654,63.94,23.505,63.918,23.36,63.893z"/>
		<path fill="none" d="M22.821,63.776c0.096,0.026,0.195,0.051,0.295,0.073C23.016,63.827,22.917,63.802,22.821,63.776z"/>
		<path fill="none" d="M21.775,63.353c0.265,0.151,0.563,0.277,0.89,0.376C22.339,63.63,22.041,63.504,21.775,63.353z"/>
		<path fill="none" d="M29.973,62.802c0.018-0.007,0.036-0.015,0.054-0.023C30.009,62.786,29.991,62.794,29.973,62.802z"/>
		<path fill="none" d="M28.949,63.189c0.071-0.024,0.14-0.049,0.21-0.074C29.089,63.141,29.02,63.165,28.949,63.189z"/>
		<path fill="none" d="M28.15,63.449c0.033-0.01,0.067-0.022,0.099-0.031C28.216,63.428,28.182,63.439,28.15,63.449z"/>
		<path fill="none" d="M27.188,63.697c0.074-0.017,0.148-0.033,0.224-0.052C27.336,63.664,27.262,63.68,27.188,63.697z"/>
		<path fill="none" d="M26.452,63.845c0.052-0.009,0.106-0.021,0.159-0.03C26.558,63.824,26.503,63.836,26.452,63.845z"/>
		<path fill="none" d="M51.319,47.737c0.053,0.022,0.104,0.05,0.157,0.077C51.423,47.787,51.372,47.759,51.319,47.737z"/>
		<path fill="none" d="M51.072,47.654c0.047,0.012,0.093,0.03,0.139,0.046C51.164,47.684,51.118,47.666,51.072,47.654z"/>
		<path fill="none" d="M51.56,47.856c0.078,0.044,0.157,0.096,0.233,0.153C51.716,47.951,51.638,47.9,51.56,47.856z"/>
		<path fill="none" d="M21.714,63.317c-0.28-0.167-0.524-0.361-0.727-0.584C21.19,62.955,21.433,63.149,21.714,63.317z"/>
		<path fill="none" d="M25.125,63.988c-0.082,0.004-0.166,0.009-0.247,0.011C24.959,63.998,25.042,63.992,25.125,63.988z"/>
		<path fill="none" d="M50.82,47.603c0.042,0.005,0.081,0.016,0.123,0.024C50.902,47.619,50.862,47.609,50.82,47.603z"/>
		<path fill="none" d="M50.303,47.597c0.032-0.003,0.063-0.003,0.095-0.005C50.366,47.594,50.336,47.594,50.303,47.597z"/>
		<path fill="none" d="M50.563,47.585c0.036,0.001,0.073,0.005,0.109,0.007C50.636,47.589,50.599,47.585,50.563,47.585z"/>
		<path fill="#ACAE24" d="M36,0C16.117,0,0,16.117,0,36c0,9.408,3.61,17.972,9.521,24.384C21.444,47.871,25.314,45.29,28.339,46.929
			c1.377,0.747,1.326,2.805,0.211,3.784c-0.715,0.63-3.33,2.705-3.84,3.151c-3.266,2.854-4.557,5.328-4.446,7.121
			c0.043,0.684,0.289,1.267,0.711,1.734c0.002,0.005,0.007,0.008,0.011,0.013c0.203,0.223,0.448,0.417,0.727,0.584
			c0.021,0.013,0.042,0.024,0.062,0.036c0.265,0.151,0.564,0.277,0.89,0.376c0.051,0.016,0.103,0.032,0.155,0.046
			c0.096,0.026,0.195,0.051,0.295,0.073c0.081,0.017,0.162,0.03,0.244,0.044c0.145,0.025,0.294,0.047,0.448,0.063
			c0.094,0.01,0.189,0.019,0.286,0.026c0.092,0.006,0.183,0.012,0.279,0.015c0.164,0.006,0.334,0.007,0.506,0.003
			c0.081-0.002,0.165-0.008,0.247-0.011c0.142-0.007,0.288-0.017,0.435-0.03c0.083-0.007,0.166-0.015,0.249-0.024
			c0.21-0.024,0.424-0.052,0.643-0.089c0.051-0.009,0.106-0.021,0.159-0.03c0.189-0.035,0.381-0.073,0.577-0.118
			c0.074-0.017,0.148-0.033,0.224-0.052c0.242-0.059,0.488-0.122,0.738-0.196c0.033-0.01,0.067-0.022,0.099-0.031
			c0.23-0.07,0.464-0.146,0.7-0.229c0.071-0.024,0.14-0.049,0.21-0.074c0.268-0.097,0.538-0.2,0.814-0.314
			c0.018-0.007,0.036-0.015,0.054-0.023c0.261-0.109,0.526-0.227,0.794-0.352c0.069-0.032,0.14-0.066,0.21-0.1
			c0.287-0.137,0.575-0.279,0.868-0.435c0.009-0.004,0.017-0.01,0.025-0.013c0.282-0.151,0.57-0.313,0.857-0.481
			c0.076-0.044,0.15-0.087,0.225-0.132c0.298-0.177,0.599-0.361,0.901-0.558c6.398-4.157,13.919-11.945,13.649-11.502
			c0.288-0.298,0.586-0.561,0.887-0.787c0.001-0.001,0.003-0.002,0.004-0.004c0.087-0.065,0.174-0.126,0.261-0.184
			c0.005-0.004,0.01-0.007,0.014-0.009c0.084-0.056,0.168-0.109,0.252-0.158c0.009-0.005,0.017-0.009,0.024-0.014
			c0.081-0.046,0.162-0.09,0.243-0.13c0.013-0.006,0.027-0.012,0.04-0.018c0.075-0.036,0.151-0.07,0.226-0.101
			c0.018-0.008,0.036-0.013,0.054-0.02c0.07-0.028,0.142-0.053,0.213-0.075c0.023-0.007,0.044-0.013,0.067-0.019
			c0.067-0.018,0.132-0.036,0.198-0.05c0.027-0.005,0.055-0.008,0.083-0.014c0.061-0.01,0.121-0.02,0.181-0.026
			c0.032-0.003,0.063-0.003,0.095-0.005c0.055-0.003,0.11-0.007,0.165-0.007c0.036,0.001,0.073,0.005,0.109,0.007
			c0.05,0.003,0.099,0.005,0.148,0.011c0.042,0.005,0.081,0.016,0.123,0.024c0.043,0.009,0.085,0.015,0.128,0.026
			c0.047,0.012,0.093,0.03,0.139,0.046c0.037,0.013,0.073,0.023,0.109,0.037c0.053,0.022,0.104,0.05,0.157,0.077
			c0.028,0.015,0.055,0.025,0.084,0.042c0.078,0.044,0.157,0.096,0.233,0.153c3.589,2.696-7.752,13.155-14.237,17.859
			c-2.242,1.625-0.401,3.151,1.259,1.875c3.551-2.728,8.164-6.701,13.275-12.651c2.99-3.483,4.952-4.948,6.657-3.55
			c1.523,1.248,0.792,3.121-1.883,6.076c-0.385,0.425-5.046,5.919-11.038,11.045c-1.669,1.427-0.738,2.098,0.069,1.959
			c0.091-0.027,0.18-0.054,0.271-0.081c0.029-0.013,0.058-0.027,0.088-0.043c2.898-1.623,7.53-6.029,10.984-9.771
			c2.96-3.206,5.261-2.572,5.941-1.122c5.494-6.321,8.822-14.574,8.822-23.606C72.001,16.117,55.884,0,36,0z M34.539,48.294
			c-0.095-0.007-0.187-0.015-0.281-0.023c0.101-0.034,0.203-0.067,0.302-0.101C34.553,48.212,34.546,48.253,34.539,48.294z"/>
		<path fill="#FFFFFF" d="M57.239,60.728c-3.455,3.742-8.087,8.149-10.984,9.771c-0.03,0.016-0.059,0.03-0.088,0.043
			c6.685-1.964,12.561-5.813,17.013-10.937C62.5,58.156,60.199,57.522,57.239,60.728z"/>
		<path fill="#FFFFFF" d="M34.539,48.294c0.007-0.041,0.014-0.082,0.021-0.124c-0.1,0.033-0.202,0.067-0.302,0.101
			C34.352,48.279,34.444,48.287,34.539,48.294z"/>
		<path fill="#FFFFFF" d="M22.666,63.729c0.051,0.016,0.103,0.032,0.155,0.046C22.769,63.761,22.717,63.745,22.666,63.729z"/>
		<path fill="#FFFFFF" d="M21.714,63.317c0.021,0.013,0.042,0.024,0.062,0.036C21.755,63.341,21.735,63.329,21.714,63.317z"/>
		<path fill="#FFFFFF" d="M27.412,63.645c0.242-0.058,0.488-0.122,0.738-0.196C27.9,63.523,27.654,63.587,27.412,63.645z"/>
		<path fill="#FFFFFF" d="M24.878,64c-0.172,0.004-0.342,0.003-0.506-0.003C24.537,64.002,24.706,64.004,24.878,64z"/>
		<path fill="#FFFFFF" d="M26.611,63.815c0.189-0.035,0.381-0.073,0.577-0.118C26.992,63.741,26.799,63.78,26.611,63.815z"/>
		<path fill="#FFFFFF" d="M28.249,63.418c0.23-0.07,0.464-0.146,0.7-0.229C28.713,63.272,28.478,63.348,28.249,63.418z"/>
		<path fill="#FFFFFF" d="M23.808,63.956c0.094,0.01,0.189,0.019,0.286,0.026C23.997,63.975,23.902,63.966,23.808,63.956z"/>
		<path fill="#FFFFFF" d="M23.116,63.849c0.08,0.017,0.162,0.03,0.244,0.044C23.278,63.879,23.197,63.865,23.116,63.849z"/>
		<path fill="#FFFFFF" d="M25.125,63.988c0.142-0.007,0.288-0.017,0.435-0.03C25.413,63.972,25.267,63.982,25.125,63.988z"/>
		<path fill="#FFFFFF" d="M25.809,63.934c0.21-0.024,0.424-0.052,0.643-0.089C26.233,63.882,26.019,63.91,25.809,63.934z"/>
		<path fill="#FFFFFF" d="M20.986,62.732c-0.004-0.004-0.009-0.008-0.011-0.013C20.978,62.724,20.982,62.728,20.986,62.732z"/>
		<path fill="#FFFFFF" d="M48.721,48.222c0.084-0.056,0.168-0.109,0.252-0.158C48.889,48.114,48.805,48.166,48.721,48.222z"/>
		<path fill="#FFFFFF" d="M49.281,47.902c0.075-0.036,0.151-0.07,0.226-0.101C49.432,47.832,49.356,47.866,49.281,47.902z"/>
		<path fill="#FFFFFF" d="M50.672,47.592c0.05,0.003,0.099,0.005,0.148,0.011C50.771,47.597,50.722,47.595,50.672,47.592z"/>
		<path fill="#FFFFFF" d="M48.998,48.051c0.081-0.046,0.162-0.09,0.243-0.13C49.161,47.961,49.079,48.004,48.998,48.051z"/>
		<path fill="#FFFFFF" d="M50.943,47.627c0.043,0.009,0.085,0.015,0.128,0.026C51.029,47.642,50.986,47.636,50.943,47.627z"/>
		<path fill="#FFFFFF" d="M50.122,47.623c0.061-0.01,0.121-0.02,0.181-0.026C50.243,47.603,50.183,47.613,50.122,47.623z"/>
		<path fill="#FFFFFF" d="M49.562,47.781c0.07-0.028,0.142-0.053,0.213-0.075C49.704,47.728,49.631,47.754,49.562,47.781z"/>
		<path fill="#FFFFFF" d="M49.842,47.687c0.067-0.018,0.132-0.036,0.198-0.05C49.974,47.651,49.908,47.669,49.842,47.687z"/>
		<path fill="#FFFFFF" d="M50.398,47.591c0.055-0.004,0.11-0.007,0.165-0.007C50.508,47.584,50.453,47.588,50.398,47.591z"/>
		<path fill="#FFFFFF" d="M51.476,47.814c0.028,0.015,0.055,0.025,0.084,0.042C51.531,47.84,51.504,47.829,51.476,47.814z"/>
		<path fill="#FFFFFF" d="M30.027,62.778c0.261-0.109,0.526-0.227,0.794-0.352C30.553,62.551,30.288,62.67,30.027,62.778z"/>
		<path fill="#FFFFFF" d="M31.031,62.327c0.287-0.137,0.575-0.279,0.868-0.435C31.607,62.048,31.318,62.19,31.031,62.327z"/>
		<path fill="#FFFFFF" d="M48.447,48.415c0.087-0.065,0.174-0.126,0.261-0.184C48.621,48.289,48.533,48.351,48.447,48.415z"/>
		<path fill="#FFFFFF" d="M29.159,63.115c0.268-0.097,0.538-0.2,0.814-0.314C29.697,62.915,29.427,63.018,29.159,63.115z"/>
		<path fill="#FFFFFF" d="M33.006,61.266c0.298-0.177,0.599-0.361,0.901-0.558C33.604,60.905,33.304,61.089,33.006,61.266z"/>
		<path fill="#FFFFFF" d="M31.924,61.879c0.282-0.151,0.57-0.313,0.857-0.481C32.494,61.566,32.206,61.728,31.924,61.879z"/>
		<path fill="#FFFFFF" d="M51.211,47.699c0.037,0.013,0.073,0.023,0.109,0.037C51.283,47.722,51.248,47.713,51.211,47.699z"/>
		<path fill="#FFFFFF" stroke="#FFFFFF" stroke-width="2.8347" stroke-miterlimit="10" d="M36.276,44.556"/>
		<path fill="#FFFFFF" stroke="#FFFFFF" stroke-width="2.8347" stroke-miterlimit="10" d="M36.276,28.155"/>
		<g>
			<path fill="#FFFFFF" d="M45.827,68.664c5.992-5.125,10.653-10.619,11.038-11.045c2.674-2.956,3.405-4.829,1.883-6.076
				c-1.705-1.397-3.667,0.067-6.657,3.55c-5.111,5.95-9.724,9.923-13.275,12.651c-1.66,1.276-3.501-0.25-1.259-1.875
				c6.485-4.704,17.826-15.163,14.237-17.859c-0.076-0.058-0.155-0.109-0.233-0.153c-0.028-0.016-0.056-0.027-0.084-0.042
				c-0.053-0.027-0.104-0.055-0.157-0.077c-0.036-0.014-0.072-0.024-0.109-0.037c-0.046-0.016-0.092-0.034-0.139-0.046
				c-0.043-0.011-0.085-0.018-0.128-0.026c-0.042-0.008-0.081-0.019-0.123-0.024c-0.049-0.007-0.099-0.009-0.148-0.011
				c-0.036-0.003-0.073-0.007-0.109-0.007c-0.055-0.001-0.11,0.003-0.165,0.007c-0.032,0.002-0.063,0.002-0.095,0.005
				c-0.06,0.006-0.12,0.017-0.181,0.026c-0.027,0.006-0.055,0.009-0.083,0.014c-0.066,0.014-0.131,0.032-0.198,0.05
				c-0.023,0.006-0.045,0.011-0.067,0.019c-0.071,0.022-0.143,0.047-0.213,0.075c-0.018,0.007-0.036,0.012-0.054,0.02
				c-0.075,0.03-0.151,0.064-0.226,0.101c-0.014,0.007-0.027,0.012-0.04,0.018c-0.08,0.04-0.162,0.084-0.243,0.13
				c-0.007,0.005-0.016,0.009-0.024,0.014c-0.084,0.049-0.169,0.102-0.252,0.158c-0.004,0.002-0.009,0.005-0.014,0.009
				c-0.087,0.058-0.174,0.119-0.261,0.184c-0.001,0.001-0.003,0.003-0.004,0.004c-0.138,0.104-0.277,0.217-0.414,0.337
				c-0.078,0.07-0.154,0.146-0.234,0.22c-0.046,0.044-0.093,0.085-0.14,0.132c0.001,0,0.001,0.001,0.001,0.001
				c-0.033,0.034-0.068,0.063-0.101,0.096c0.121-0.197-1.306,1.239-3.489,3.259c-0.03-0.001-0.058-0.008-0.088-0.008H30.341
				c-0.988,0-1.791,0.802-1.791,1.791c0,0.99,0.803,1.792,1.791,1.792h1.982c-0.005,0.041,4.315,0.031,7.698,0.019
				c-1.964,1.662-4.094,3.337-6.114,4.649c-0.302,0.197-0.603,0.381-0.901,0.558c-0.075,0.045-0.149,0.089-0.225,0.132
				c-0.287,0.168-0.575,0.33-0.857,0.481c-0.009,0.004-0.016,0.009-0.025,0.013c-0.292,0.156-0.58,0.298-0.868,0.435
				c-0.071,0.034-0.141,0.068-0.21,0.1c-0.268,0.125-0.533,0.243-0.794,0.352c-0.018,0.008-0.036,0.016-0.054,0.023
				c-0.276,0.114-0.546,0.216-0.814,0.314c-0.07,0.025-0.14,0.05-0.21,0.074c-0.236,0.083-0.47,0.159-0.7,0.229
				c-0.032,0.009-0.067,0.021-0.099,0.031c-0.25,0.073-0.496,0.138-0.738,0.196c-0.076,0.018-0.15,0.035-0.224,0.052
				c-0.196,0.044-0.388,0.083-0.577,0.118c-0.053,0.009-0.107,0.021-0.159,0.03c-0.219,0.037-0.432,0.066-0.643,0.089
				c-0.084,0.009-0.166,0.017-0.249,0.024c-0.147,0.013-0.292,0.023-0.435,0.03c-0.083,0.004-0.166,0.009-0.247,0.011
				c-0.172,0.004-0.342,0.003-0.506-0.003c-0.095-0.003-0.187-0.009-0.279-0.015c-0.097-0.007-0.192-0.016-0.286-0.026
				c-0.154-0.016-0.303-0.037-0.448-0.063c-0.082-0.014-0.165-0.028-0.244-0.044c-0.1-0.022-0.199-0.048-0.295-0.073
				c-0.052-0.015-0.104-0.03-0.155-0.046c-0.327-0.099-0.625-0.225-0.89-0.376c-0.02-0.012-0.04-0.024-0.062-0.036
				c-0.281-0.167-0.524-0.361-0.727-0.584c-0.004-0.004-0.009-0.008-0.011-0.013c-0.423-0.467-0.669-1.05-0.711-1.734
				c-0.111-1.793,1.18-4.267,4.446-7.121c0.51-0.447,3.124-2.522,3.84-3.151c0.358-0.315,0.605-0.742,0.731-1.2
				c0.298,0.22,0.662,0.355,1.06,0.355h13.637c0.987,0,1.791-0.801,1.791-1.791c0-0.99-0.804-1.792-1.791-1.792H30.341
				c-0.687,0-1.277,0.392-1.576,0.961c-0.124-0.12-0.265-0.228-0.426-0.316c-3.025-1.639-6.895,0.943-18.818,13.455
				C16.098,67.526,25.526,72,36,72c3.432,0,6.751-0.48,9.896-1.377C45.089,70.762,44.158,70.091,45.827,68.664z"/>
			<path fill="#FFFFFF" d="M57.317,60.758c-3.428,3.713-8.022,8.084-10.897,9.693c-0.03,0.016-0.058,0.03-0.087,0.043
				c6.631-1.948,12.464-5.768,16.88-10.85C62.538,58.206,60.255,57.577,57.317,60.758z"/>
			<path fill="#FFFFFF" d="M27.886,38.968c0.51,2.617,2.305,4.549,4.441,4.549h9.663c2.136,0,3.933-1.932,4.443-4.549
				c4.019-2.886,6.639-7.604,6.639-12.932c0-8.786-7.124-15.913-15.911-15.913c-8.79,0-15.914,7.127-15.914,15.913
				C21.247,31.364,23.867,36.082,27.886,38.968z M36.61,14.437c0.658,0,1.195,0.535,1.195,1.193c0,0.662-0.537,1.196-1.195,1.196
				c-2.397,0-4.554,0.969-6.126,2.537c-1.569,1.57-2.536,3.73-2.536,6.125c0,0.66-0.535,1.196-1.196,1.196
				c-0.66,0-1.193-0.536-1.193-1.196C25.559,19.383,30.505,14.438,36.61,14.437z"/>
		</g>
	</g>
	<g>
		<path fill="#939598" d="M326.021,40.772c-0.686,0-1.238,0.21-1.66,0.632c-0.394,0.397-0.592,0.948-0.592,1.66
			c0,0.684,0.198,1.238,0.592,1.659c0.422,0.419,0.975,0.633,1.66,0.633c0.711,0,1.276-0.213,1.698-0.633
			c0.423-0.421,0.633-0.975,0.633-1.659c0-0.712-0.21-1.263-0.633-1.66C327.297,40.983,326.733,40.772,326.021,40.772z"/>
		<path fill="#939598" d="M337.463,17.202c-1.054,0-1.937,0.145-2.647,0.434c-0.711,0.264-1.292,0.686-1.741,1.265
			c-0.445,0.553-0.776,1.279-0.985,2.175c-0.187,0.896-0.279,1.949-0.279,3.159v1.107h-3.082v2.767h3.082v16.991h3.162V28.109h5.256
			v-2.767h-5.256v-0.554c0-0.789,0.012-1.474,0.039-2.054c0.054-0.606,0.157-1.108,0.317-1.501c0.185-0.422,0.46-0.738,0.829-0.947
			c0.395-0.214,0.935-0.318,1.621-0.318c0.473,0,0.975,0.04,1.502,0.118c0.55,0.079,1.132,0.252,1.738,0.513l0.711-2.645
			c-0.711-0.291-1.398-0.49-2.053-0.593C339.044,17.255,338.307,17.202,337.463,17.202z"/>
		<path fill="#939598" d="M347.303,19.544c-0.449-0.448-0.989-0.672-1.621-0.672c-0.632,0-1.159,0.224-1.58,0.672
			c-0.396,0.422-0.595,0.936-0.595,1.542c0,0.606,0.199,1.106,0.595,1.502c0.421,0.395,0.948,0.591,1.58,0.591
			c0.632,0,1.172-0.195,1.621-0.591c0.447-0.396,0.671-0.896,0.671-1.502C347.974,20.48,347.75,19.966,347.303,19.544z"/>
		<rect x="344.181" y="25.342" fill="#939598" width="3.162" height="19.758"/>
		<path fill="#939598" d="M92.483,37.024h-1.37v8.104h-5.091V17.721h5.091v16.17l1.173-0.548l4.465-7.792h5.599l-4.698,7.439
			l-1.997,1.488l2.154,1.528l5.285,9.122h-5.833L92.483,37.024z"/>
		<path fill="#939598" d="M110.141,25.552v11.121c0,1.592,0.189,2.74,0.567,3.444c0.379,0.705,1.118,1.058,2.213,1.058
			c0.966,0,1.768-0.287,2.407-0.862c0.639-0.573,1.116-1.278,1.429-2.114V25.552h5.09v13.625c0,1.071,0.051,2.122,0.156,3.153
			c0.104,1.03,0.261,1.964,0.471,2.798h-3.836l-0.901-2.896h-0.158c-0.599,0.992-1.436,1.814-2.506,2.466
			c-1.069,0.653-2.336,0.979-3.797,0.979c-0.993,0-1.88-0.131-2.664-0.391c-0.781-0.26-1.436-0.691-1.956-1.292
			c-0.523-0.6-0.921-1.41-1.195-2.427c-0.275-1.018-0.411-2.297-0.411-3.837V25.552H110.141z"/>
		<path fill="#939598" d="M137.846,45.128V34.009c0-1.592-0.23-2.74-0.686-3.446c-0.457-0.704-1.233-1.056-2.329-1.056
			c-0.967,0-1.783,0.28-2.448,0.842c-0.665,0.561-1.142,1.259-1.429,2.095v12.684h-5.09V25.552h4.033l0.587,2.585h0.157
			c0.6-0.835,1.396-1.567,2.388-2.193c0.991-0.627,2.27-0.94,3.837-0.94c0.966,0,1.827,0.132,2.583,0.391
			c0.758,0.262,1.397,0.692,1.92,1.292c0.522,0.6,0.912,1.417,1.174,2.448c0.261,1.031,0.392,2.304,0.392,3.817v12.176H137.846z"/>
		<path fill="#939598" d="M145.167,25.552h2.702v-3.68l5.089-1.449v5.129h4.777v4.307h-4.777v7.518c0,1.357,0.137,2.329,0.412,2.915
			c0.273,0.588,0.789,0.882,1.547,0.882c0.522,0,0.973-0.052,1.351-0.157c0.379-0.105,0.803-0.261,1.271-0.47l0.902,3.916
			c-0.705,0.338-1.528,0.626-2.468,0.861c-0.939,0.235-1.893,0.352-2.858,0.352c-1.801,0-3.125-0.463-3.973-1.389
			c-0.849-0.927-1.273-2.446-1.273-4.562v-9.867h-2.702V25.552z"/>
		<path fill="#939598" d="M161.641,26.687c1.042-0.469,2.285-0.841,3.721-1.115c1.434-0.275,2.935-0.412,4.502-0.412
			c1.356,0,2.491,0.164,3.405,0.49c0.914,0.326,1.639,0.789,2.174,1.39c0.534,0.6,0.912,1.317,1.135,2.153
			c0.222,0.836,0.333,1.775,0.333,2.82c0,1.149-0.038,2.303-0.117,3.465c-0.079,1.161-0.125,2.304-0.138,3.425
			c-0.013,1.123,0.02,2.213,0.099,3.271c0.079,1.057,0.274,2.055,0.587,2.994h-4.15l-0.823-2.702h-0.195
			c-0.523,0.811-1.247,1.507-2.174,2.095c-0.927,0.587-2.121,0.881-3.582,0.881c-0.915,0-1.737-0.138-2.468-0.411
			c-0.731-0.274-1.357-0.666-1.878-1.175c-0.523-0.508-0.927-1.109-1.214-1.801c-0.288-0.691-0.431-1.468-0.431-2.329
			c0-1.2,0.268-2.212,0.803-3.034c0.535-0.821,1.306-1.488,2.31-1.997c1.005-0.509,2.206-0.862,3.602-1.058
			c1.396-0.196,2.956-0.254,4.678-0.176c0.183-1.462,0.08-2.512-0.313-3.151c-0.392-0.64-1.267-0.96-2.623-0.96
			c-1.017,0-2.095,0.105-3.23,0.314c-1.135,0.209-2.069,0.483-2.8,0.821L161.641,26.687z M168.101,41.253
			c1.018,0,1.826-0.229,2.428-0.685c0.599-0.457,1.044-0.946,1.33-1.469v-2.544c-0.809-0.079-1.585-0.092-2.33-0.04
			c-0.743,0.053-1.402,0.17-1.976,0.353c-0.576,0.183-1.032,0.443-1.371,0.783c-0.339,0.338-0.508,0.77-0.508,1.29
			c0,0.732,0.215,1.299,0.644,1.704C166.75,41.051,167.344,41.253,168.101,41.253z"/>
		<path fill="#939598" d="M185.533,38.551c0,0.913,0.117,1.579,0.353,1.996c0.234,0.417,0.613,0.627,1.135,0.627
			c0.314,0,0.619-0.026,0.919-0.079c0.301-0.052,0.673-0.169,1.116-0.352l0.548,3.994c-0.417,0.209-1.056,0.417-1.917,0.626
			c-0.861,0.21-1.75,0.313-2.664,0.313c-1.487,0-2.623-0.346-3.405-1.037c-0.784-0.691-1.176-1.833-1.176-3.426V17.721h5.09V38.551z
			"/>
		<path fill="#939598" d="M192.571,26.687c1.044-0.469,2.284-0.841,3.721-1.115c1.435-0.275,2.936-0.412,4.502-0.412
			c1.357,0,2.493,0.164,3.406,0.49c0.913,0.326,1.638,0.789,2.172,1.39c0.535,0.6,0.914,1.317,1.136,2.153
			c0.222,0.836,0.333,1.775,0.333,2.82c0,1.149-0.039,2.303-0.118,3.465c-0.077,1.161-0.125,2.304-0.136,3.425
			c-0.015,1.123,0.018,2.213,0.098,3.271c0.077,1.057,0.272,2.055,0.586,2.994h-4.15l-0.821-2.702h-0.195
			c-0.522,0.811-1.25,1.507-2.174,2.095c-0.926,0.587-2.12,0.881-3.583,0.881c-0.913,0-1.736-0.138-2.466-0.411
			c-0.73-0.274-1.357-0.666-1.88-1.175c-0.521-0.508-0.927-1.109-1.213-1.801c-0.288-0.691-0.431-1.468-0.431-2.329
			c0-1.2,0.267-2.212,0.802-3.034c0.535-0.821,1.305-1.488,2.311-1.997c1.004-0.509,2.205-0.862,3.602-1.058
			c1.397-0.196,2.957-0.254,4.678-0.176c0.183-1.462,0.079-2.512-0.313-3.151c-0.391-0.64-1.265-0.96-2.622-0.96
			c-1.02,0-2.096,0.105-3.23,0.314c-1.136,0.209-2.068,0.483-2.8,0.821L192.571,26.687z M199.032,41.253
			c1.018,0,1.826-0.229,2.425-0.685c0.602-0.457,1.046-0.946,1.332-1.469v-2.544c-0.808-0.079-1.585-0.092-2.329-0.04
			c-0.744,0.053-1.402,0.17-1.977,0.353c-0.575,0.183-1.033,0.443-1.371,0.783c-0.34,0.338-0.509,0.77-0.509,1.29
			c0,0.732,0.215,1.299,0.647,1.704C197.681,41.051,198.274,41.253,199.032,41.253z"/>
		<path fill="#939598" d="M211.35,21.781c0-0.756,0.281-1.403,0.84-1.938c0.563-0.535,1.339-0.803,2.331-0.803
			c0.992,0,1.794,0.269,2.409,0.803c0.611,0.535,0.92,1.182,0.92,1.938c0,0.758-0.309,1.39-0.92,1.899
			c-0.615,0.51-1.417,0.764-2.409,0.764c-0.992,0-1.768-0.254-2.331-0.764C211.63,23.171,211.35,22.539,211.35,21.781z
			 M212.093,25.552h5.089v19.576h-5.089V25.552z"/>
		<path fill="#939598" d="M229.407,39.725c0-0.521-0.22-0.94-0.664-1.253c-0.444-0.313-0.992-0.6-1.643-0.861
			c-0.653-0.261-1.372-0.529-2.154-0.804c-0.783-0.274-1.502-0.652-2.154-1.134c-0.652-0.483-1.2-1.097-1.645-1.841
			c-0.444-0.744-0.665-1.703-0.665-2.878c0-1.931,0.574-3.406,1.722-4.425c1.149-1.018,2.806-1.527,4.973-1.527
			c1.488,0,2.833,0.156,4.033,0.47c1.2,0.313,2.14,0.665,2.818,1.057l-1.133,3.681c-0.602-0.235-1.359-0.482-2.271-0.743
			c-0.915-0.261-1.84-0.392-2.78-0.392c-1.515,0-2.271,0.588-2.271,1.762c0,0.469,0.221,0.848,0.666,1.136
			c0.443,0.287,0.992,0.555,1.644,0.803c0.652,0.248,1.37,0.516,2.153,0.803c0.783,0.287,1.501,0.658,2.154,1.115
			c0.651,0.457,1.2,1.051,1.643,1.781c0.444,0.731,0.666,1.671,0.666,2.818c0,1.985-0.633,3.544-1.9,4.679
			c-1.266,1.136-3.165,1.703-5.697,1.703c-1.383,0-2.682-0.176-3.894-0.529c-1.214-0.352-2.2-0.764-2.957-1.233l1.411-3.798
			c0.6,0.339,1.394,0.673,2.388,0.998c0.991,0.328,2.009,0.49,3.053,0.49c0.758,0,1.364-0.144,1.822-0.431
			C229.179,40.887,229.407,40.405,229.407,39.725z"/>
		<path fill="#939598" d="M252.088,40.11c0-1.325,0.038-2.726,0.116-4.207c0.08-1.479,0.117-2.998,0.117-4.555
			c0-0.701-0.077-1.403-0.232-2.104c-0.13-0.701-0.414-1.337-0.858-1.906c-0.416-0.599-1.036-1.08-1.871-1.443
			c-0.802-0.364-1.881-0.545-3.23-0.545c-1.429,0-2.803,0.143-4.13,0.427c-1.298,0.287-2.441,0.728-3.426,1.326l0.973,2.336
			c0.365-0.207,0.78-0.39,1.247-0.543c0.493-0.184,1.001-0.325,1.518-0.429c0.545-0.13,1.064-0.221,1.557-0.274
			c0.519-0.077,1.001-0.115,1.44-0.115c1.508,0,2.546,0.284,3.119,0.857c0.568,0.57,0.856,1.57,0.856,2.998
			c0,0.624-0.039,1.324-0.118,2.102c-0.362-0.052-0.726-0.078-1.088-0.078c-0.337,0-0.689,0-1.054,0
			c-1.426,0-2.739,0.104-3.933,0.313c-1.168,0.181-2.182,0.506-3.037,0.972c-0.829,0.442-1.48,1.052-1.948,1.832
			c-0.467,0.753-0.702,1.699-0.702,2.843c0,0.855,0.144,1.621,0.431,2.297c0.309,0.674,0.725,1.26,1.244,1.753
			c0.521,0.467,1.13,0.829,1.83,1.089c0.728,0.259,1.508,0.39,2.337,0.39c0.832,0,1.572-0.091,2.221-0.274
			c0.651-0.18,1.22-0.402,1.714-0.66c0.492-0.286,0.907-0.598,1.247-0.936c0.363-0.362,0.661-0.727,0.894-1.091h0.195l0.818,2.726
			h2.297c-0.208-0.727-0.348-1.517-0.428-2.376C252.126,41.979,252.088,41.071,252.088,40.11z M249.166,39.642
			c-0.129,0.338-0.337,0.689-0.621,1.052c-0.262,0.362-0.596,0.701-1.013,1.012c-0.414,0.286-0.91,0.533-1.481,0.741
			c-0.57,0.181-1.219,0.273-1.946,0.273c-1.013,0-1.841-0.286-2.492-0.857c-0.649-0.597-0.974-1.351-0.974-2.259
			c0-0.65,0.169-1.18,0.506-1.597c0.365-0.441,0.831-0.778,1.402-1.013c0.599-0.259,1.274-0.427,2.025-0.506
			c0.78-0.105,1.572-0.156,2.376-0.156c0.364,0,0.726,0.013,1.091,0.039c0.39,0,0.766,0.013,1.128,0.038V39.642z"/>
		<path fill="#939598" d="M262.648,42.797c-0.389,0.052-0.752,0.079-1.09,0.079c-0.572,0-1.012-0.196-1.323-0.585
			c-0.313-0.389-0.468-1.039-0.468-1.947V17.872h-3.115v23.367c0,1.584,0.377,2.713,1.13,3.389c0.752,0.648,1.713,0.973,2.881,0.973
			c0.547,0,1.182-0.065,1.908-0.195c0.754-0.13,1.338-0.297,1.753-0.506l-0.351-2.453C263.478,42.629,263.037,42.745,262.648,42.797
			z"/>
		<path fill="#939598" d="M280.334,27.998c-0.698-0.909-1.596-1.596-2.687-2.063c-1.063-0.494-2.323-0.739-3.777-0.739
			c-2.751,0-4.868,0.882-6.347,2.647c-1.455,1.74-2.182,4.258-2.182,7.556c0,1.53,0.169,2.934,0.508,4.205
			c0.337,1.246,0.856,2.324,1.557,3.233c0.701,0.882,1.583,1.571,2.649,2.064c1.089,0.467,2.362,0.7,3.815,0.7
			c2.752,0,4.856-0.869,6.311-2.608c1.48-1.765,2.219-4.297,2.219-7.593c0-1.532-0.169-2.922-0.506-4.169
			C281.558,29.958,281.037,28.882,280.334,27.998z M273.87,42.876c-0.96,0-1.779-0.208-2.452-0.624
			c-0.676-0.416-1.223-0.96-1.638-1.636c-0.415-0.675-0.726-1.466-0.934-2.376c-0.181-0.909-0.274-1.856-0.274-2.842
			c0-5.012,1.766-7.504,5.297-7.477c0.961,0,1.778,0.207,2.455,0.622c0.674,0.39,1.217,0.921,1.635,1.596
			c0.415,0.676,0.715,1.467,0.895,2.376c0.21,0.908,0.313,1.869,0.313,2.883C279.168,40.41,277.401,42.901,273.87,42.876z"/>
		<path fill="#939598" d="M287.217,19.312c-0.623,0-1.143,0.22-1.556,0.66c-0.392,0.417-0.585,0.922-0.585,1.521
			c0,0.598,0.193,1.09,0.585,1.478c0.414,0.391,0.934,0.583,1.556,0.583c0.625,0,1.155-0.193,1.596-0.583
			c0.441-0.388,0.661-0.881,0.661-1.478c0-0.598-0.22-1.104-0.661-1.521C288.372,19.532,287.842,19.312,287.217,19.312z"/>
		<rect x="285.737" y="25.661" fill="#939598" width="3.116" height="19.473"/>
		<path fill="#939598" d="M302.333,42.68c-0.465,0.13-1.038,0.196-1.712,0.196c-0.805,0-1.377-0.273-1.716-0.818
			c-0.336-0.571-0.505-1.534-0.505-2.883V28.388h5.296v-2.726H298.4v-4.751l-3.114,0.894v3.857h-3.038v2.726h3.038V39.76
			c0,2.103,0.323,3.609,0.972,4.516c0.65,0.884,1.766,1.324,3.349,1.324c0.963,0,1.858-0.102,2.688-0.312
			c0.832-0.207,1.597-0.478,2.297-0.817l-0.699-2.375C303.321,42.33,302.799,42.525,302.333,42.68z"/>
		<path fill="#939598" d="M319.195,26.597c-0.7-0.546-1.491-0.909-2.374-1.091c-0.883-0.206-1.766-0.309-2.649-0.309
			c-2.753,0-4.867,0.868-6.35,2.607c-1.477,1.74-2.217,4.271-2.217,7.596c0,1.557,0.168,2.959,0.506,4.205
			c0.337,1.246,0.857,2.324,1.557,3.233c0.703,0.882,1.596,1.571,2.686,2.064c1.092,0.467,2.378,0.7,3.857,0.7
			c1.324,0,2.57-0.182,3.737-0.545c1.195-0.362,2.183-0.858,2.96-1.479l-1.168-2.258c-0.441,0.415-1.104,0.778-1.987,1.09
			c-0.883,0.312-1.766,0.468-2.647,0.468c-1.143,0-2.118-0.156-2.921-0.468c-0.778-0.337-1.417-0.805-1.909-1.402
			c-0.492-0.623-0.857-1.375-1.09-2.259c-0.233-0.884-0.35-1.896-0.35-3.038h12.5c0.156-1.039,0.235-1.987,0.235-2.841
			c0-1.638-0.221-2.947-0.664-3.933C320.469,27.922,319.897,27.143,319.195,26.597z M308.877,33.257
			c0.183-1.949,0.725-3.324,1.634-4.129c0.936-0.803,2.169-1.205,3.701-1.205c1.376,0,2.441,0.402,3.192,1.205
			c0.754,0.779,1.132,2.157,1.132,4.129H308.877z"/>
	</g>
</g>
</svg>
