<svg xmlns="http://www.w3.org/2000/svg" xmlns:xlink="http://www.w3.org/1999/xlink" version="1.1" x="0px" y="0px" width="596.577px" height="123.438px" viewBox="0 0 596.577 123.438" enable-background="new 0 0 596.577 123.438" xml:space="preserve"><style>.style0{fill:	#FFFFFF;}.style1{fill:	#087480;}.style2{fill:	#939598;}</style><g><path d="M97.782 104.36c-5.949 6.442-13.92 14.027-18.908 16.819c-0.051 0.027-0.102 0.052-0.153 0.1 c11.508-3.38 21.625-10.008 29.29-18.826C106.839 99.9 102.9 98.8 97.8 104.4" class="style0"/><path d="M61.719 0C27.631 0 0 27.6 0 61.719c0 16.1 6.2 30.8 16.3 41.8 c20.442-21.452 27.076-25.878 32.262-23.068c2.36 1.3 2.3 4.8 0.4 6.487c-1.226 1.08-5.709 4.638-6.583 5.4 c-5.599 4.893-7.812 9.136-7.623 12.209c0.074 1.2 0.5 2.2 1.2 2.973c0.004 0 0 0 0 0 c0.348 0.4 0.8 0.7 1.2 1.002c0.036 0 0.1 0 0.1 0.062c0.455 0.3 1 0.5 1.5 0.6 c0.087 0 0.2 0.1 0.3 0.078c0.165 0 0.3 0.1 0.5 0.126c0.139 0 0.3 0.1 0.4 0.1 c0.248 0 0.5 0.1 0.8 0.107c0.161 0 0.3 0 0.5 0.045c0.157 0 0.3 0 0.5 0 c0.282 0 0.6 0 0.9 0.006c0.139-0.004 0.283-0.014 0.423-0.021c0.244-0.011 0.494-0.028 0.745-0.052 c0.143-0.012 0.285-0.025 0.428-0.041c0.361-0.041 0.727-0.09 1.102-0.153c0.088-0.015 0.181-0.036 0.272-0.051 c0.323-0.06 0.654-0.126 0.989-0.202c0.127-0.029 0.254-0.057 0.384-0.089c0.415-0.101 0.837-0.21 1.266-0.336 c0.056-0.018 0.114-0.037 0.17-0.053c0.393-0.12 0.795-0.251 1.2-0.393c0.121-0.042 0.24-0.084 0.36-0.128 c0.46-0.166 0.923-0.343 1.396-0.537c0.03-0.013 0.061-0.026 0.093-0.04c0.447-0.187 0.902-0.39 1.361-0.604 c0.119-0.055 0.239-0.112 0.36-0.17c0.493-0.235 0.987-0.479 1.488-0.746c0.015-0.007 0.028-0.016 0.043-0.022 c0.483-0.259 0.976-0.537 1.468-0.824c0.131-0.074 0.258-0.15 0.386-0.227c0.511-0.304 1.026-0.619 1.545-0.957 C69.1 97 82 83.6 81.5 84.36c0.495-0.511 1.005-0.962 1.522-1.349c0.002-0.002 0.005-0.004 0.007-0.008 c0.148-0.11 0.298-0.216 0.447-0.314c0.008-0.007 0.017-0.012 0.023-0.017c0.144-0.096 0.289-0.186 0.433-0.271 c0.015-0.007 0.029-0.015 0.042-0.023c0.139-0.079 0.278-0.153 0.416-0.223c0.023-0.01 0.046-0.02 0.069-0.031 c0.129-0.062 0.259-0.121 0.388-0.173c0.03-0.014 0.063-0.022 0.093-0.034c0.119-0.048 0.244-0.092 0.365-0.129 c0.039-0.013 0.076-0.021 0.115-0.032c0.115-0.031 0.227-0.062 0.339-0.086c0.047-0.01 0.095-0.015 0.142-0.024 c0.104-0.018 0.208-0.035 0.31-0.045c0.056-0.005 0.108-0.005 0.163-0.009c0.094-0.007 0.189-0.014 0.283-0.013 c0.062 0 0.1 0 0.2 0.014c0.085 0 0.2 0 0.3 0.019c0.071 0 0.1 0 0.2 0 c0.073 0 0.1 0 0.2 0.045c0.08 0 0.2 0.1 0.2 0.079c0.064 0 0.1 0 0.2 0.1 c0.09 0 0.2 0.1 0.3 0.133c0.048 0 0.1 0 0.1 0.07c0.133 0.1 0.3 0.2 0.4 0.3 c6.152 4.623-13.29 22.553-24.408 30.619c-3.844 2.785-0.688 5.4 2.2 3.214c6.088-4.676 13.997-11.488 22.759-21.688 c5.126-5.971 8.489-8.482 11.413-6.087c2.61 2.1 1.4 5.351-3.228 10.417c-0.66 0.729-8.651 10.148-18.923 18.9 c-2.862 2.446-1.265 3.6 0.1 3.358c0.155-0.046 0.308-0.092 0.465-0.138c0.049-0.023 0.099-0.047 0.15-0.074 c4.968-2.781 12.909-10.336 18.832-16.752c5.075-5.496 9.02-4.409 10.186-1.924c9.419-10.836 15.124-24.987 15.124-40.47 C123.442 27.6 95.8 0 61.7 0 M59.215 82.795c-0.163-0.012-0.321-0.024-0.482-0.039c0.172-0.059 0.347-0.115 0.518-0.173 C59.238 82.7 59.2 82.7 59.2 82.8" class="style1"/><path d="M98.132 104.113c-5.923 6.416-13.864 13.971-18.832 16.753c-0.051 0.026-0.101 0.051-0.15 0.1 c11.461-3.367 21.535-9.967 29.168-18.75C107.152 99.7 103.2 98.6 98.1 104.1" class="style0"/><path d="M59.215 82.795c0.013-0.069 0.023-0.141 0.036-0.212c-0.171 0.058-0.346 0.114-0.518 0.2 C58.894 82.8 59.1 82.8 59.2 82.8" class="style0"/><path d="M38.858 109.258c0.088 0 0.2 0.1 0.3 0.08C39.036 109.3 38.9 109.3 38.9 109.3" class="style0"/><path d="M37.227 108.551c0.036 0 0.1 0 0.1 0.062C37.297 108.6 37.3 108.6 37.2 108.6" class="style0"/><path d="M46.995 109.115c0.415-0.1 0.837-0.21 1.266-0.336C47.832 108.9 47.4 109 47 109.1" class="style0"/><path d="M42.652 109.723c-0.295 0.007-0.586 0.004-0.867-0.006C42.066 109.7 42.4 109.7 42.7 109.7" class="style0"/><path d="M45.622 109.406c0.323-0.06 0.653-0.126 0.989-0.202C46.275 109.3 45.9 109.3 45.6 109.4" class="style0"/><path d="M48.431 108.725c0.394-0.119 0.795-0.25 1.2-0.392C49.226 108.5 48.8 108.6 48.4 108.7" class="style0"/><path d="M40.817 109.647c0.161 0 0.3 0 0.5 0.044C41.142 109.7 41 109.7 40.8 109.6" class="style0"/><path d="M39.631 109.463c0.137 0 0.3 0.1 0.4 0.076C39.909 109.5 39.8 109.5 39.6 109.5" class="style0"/><path d="M43.075 109.704c0.244-0.013 0.493-0.029 0.745-0.053C43.568 109.7 43.3 109.7 43.1 109.7" class="style0"/><path d="M44.248 109.61c0.36-0.041 0.727-0.09 1.102-0.153C44.975 109.5 44.6 109.6 44.2 109.6" class="style0"/><path d="M35.979 107.549c-0.007-0.007-0.015-0.014-0.019-0.021C35.964 107.5 36 107.5 36 107.5" class="style0"/><path d="M83.529 82.673c0.144-0.096 0.288-0.187 0.433-0.271C83.817 82.5 83.7 82.6 83.5 82.7" class="style0"/><path d="M84.489 82.125c0.129-0.062 0.259-0.121 0.388-0.173C84.748 82 84.6 82.1 84.5 82.1" class="style0"/><path d="M86.874 81.592c0.085 0 0.2 0 0.3 0.02C87.044 81.6 87 81.6 86.9 81.6" class="style0"/><path d="M84.004 82.378c0.139-0.079 0.278-0.153 0.416-0.223C84.282 82.2 84.1 82.3 84 82.4" class="style0"/><path d="M87.339 81.653c0.073 0 0.1 0 0.2 0.045C87.485 81.7 87.4 81.7 87.3 81.7" class="style0"/><path d="M85.931 81.646c0.104-0.017 0.208-0.035 0.311-0.045C86.139 81.6 86 81.6 85.9 81.6" class="style0"/><path d="M84.97 81.917c0.119-0.048 0.244-0.091 0.365-0.129C85.214 81.8 85.1 81.9 85 81.9" class="style0"/><path d="M85.45 81.756c0.114-0.031 0.227-0.062 0.339-0.086C85.677 81.7 85.6 81.7 85.5 81.8" class="style0"/><path d="M86.404 81.591c0.094-0.006 0.188-0.013 0.282-0.012C86.592 81.6 86.5 81.6 86.4 81.6" class="style0"/><path d="M88.252 81.974c0.048 0 0.1 0 0.1 0.07C88.347 82 88.3 82 88.3 82" class="style0"/><path d="M51.479 107.628c0.447-0.186 0.902-0.389 1.361-0.603C52.381 107.2 51.9 107.4 51.5 107.6" class="style0"/><path d="M53.201 106.854c0.492-0.234 0.986-0.479 1.487-0.744C54.187 106.4 53.7 106.6 53.2 106.9" class="style0"/><path d="M83.059 83.004c0.148-0.111 0.298-0.217 0.447-0.316C83.356 82.8 83.2 82.9 83.1 83" class="style0"/><path d="M49.991 108.206c0.46-0.167 0.923-0.343 1.396-0.537C50.914 107.9 50.5 108 50 108.2" class="style0"/><path d="M56.586 105.036c0.511-0.304 1.026-0.619 1.545-0.957C57.612 104.4 57.1 104.7 56.6 105" class="style0"/><path d="M54.731 106.086c0.483-0.259 0.977-0.537 1.469-0.824C55.708 105.5 55.2 105.8 54.7 106.1" class="style0"/><path d="M87.797 81.777c0.063 0 0.1 0 0.2 0.064C87.922 81.8 87.9 81.8 87.8 81.8" class="style0"/><path d="M78.566 117.718c10.272-8.787 18.264-18.206 18.924-18.935c4.585-5.067 5.838-8.278 3.227-10.418 c-2.923-2.396-6.287 0.115-11.413 6.087c-8.761 10.2-16.671 17.013-22.759 21.688c-2.846 2.188-6.002-0.428-2.159-3.215 c11.118-8.065 30.561-25.996 24.409-30.618c-0.131-0.099-0.266-0.187-0.4-0.263c-0.049-0.028-0.096-0.047-0.143-0.072 c-0.091-0.046-0.178-0.094-0.269-0.132c-0.062-0.025-0.123-0.042-0.187-0.064c-0.079-0.026-0.158-0.059-0.238-0.078 c-0.073-0.021-0.146-0.03-0.22-0.046c-0.071-0.014-0.139-0.031-0.21-0.041c-0.084-0.012-0.169-0.015-0.254-0.019 c-0.063-0.005-0.125-0.012-0.188-0.013c-0.094-0.001-0.188 0.005-0.282 0.012c-0.056 0.003-0.108 0.003-0.163 0 c-0.103 0.011-0.206 0.029-0.311 0.046c-0.047 0.011-0.094 0.016-0.141 0.024c-0.113 0.023-0.225 0.055-0.339 0.1 c-0.039 0.011-0.077 0.02-0.115 0.032c-0.122 0.038-0.247 0.081-0.366 0.129c-0.03 0.012-0.062 0.021-0.092 0 c-0.129 0.053-0.259 0.11-0.388 0.173c-0.024 0.011-0.047 0.021-0.069 0.03c-0.138 0.069-0.278 0.145-0.416 0.2 c-0.013 0.008-0.028 0.015-0.042 0.022c-0.145 0.085-0.29 0.176-0.433 0.271c-0.007 0.004-0.016 0.009-0.024 0 c-0.149 0.1-0.298 0.205-0.447 0.316c-0.002 0.003-0.005 0.005-0.007 0.006c-0.237 0.179-0.474 0.373-0.71 0.6 c-0.133 0.119-0.264 0.25-0.4 0.377c-0.078 0.076-0.16 0.146-0.24 0.226c0.002 0 0 0 0 0 c-0.057 0.058-0.116 0.107-0.173 0.165c0.207-0.339-2.239 2.124-5.983 5.587c-0.05-0.002-0.099-0.014-0.151-0.014H52.018 c-1.694 0-3.07 1.374-3.07 3.071s1.376 3.1 3.1 3.072h3.398c-0.008 0.1 7.4 0.1 13.2 0 c-3.367 2.851-7.019 5.721-10.483 7.97c-0.518 0.338-1.034 0.653-1.544 0.957c-0.128 0.077-0.255 0.151-0.386 0.2 c-0.492 0.287-0.986 0.565-1.469 0.824c-0.015 0.007-0.027 0.016-0.043 0.022c-0.501 0.268-0.995 0.511-1.487 0.7 c-0.121 0.06-0.241 0.116-0.361 0.171c-0.459 0.214-0.914 0.417-1.361 0.604c-0.031 0.014-0.062 0.026-0.093 0 c-0.472 0.194-0.935 0.371-1.395 0.538c-0.12 0.043-0.239 0.086-0.361 0.127c-0.405 0.142-0.806 0.272-1.2 0.4 c-0.055 0.017-0.114 0.036-0.17 0.054c-0.428 0.126-0.85 0.236-1.265 0.335c-0.13 0.032-0.257 0.061-0.384 0.1 c-0.336 0.076-0.666 0.143-0.989 0.201c-0.091 0.017-0.184 0.037-0.273 0.053c-0.375 0.062-0.741 0.111-1.101 0.2 c-0.144 0.016-0.286 0.029-0.428 0.041c-0.252 0.023-0.501 0.04-0.745 0.053c-0.143 0.006-0.284 0.016-0.423 0 c-0.295 0.007-0.586 0.005-0.867-0.005c-0.163-0.005-0.321-0.015-0.478-0.026c-0.166-0.012-0.329-0.026-0.49-0.044 c-0.264-0.026-0.52-0.063-0.768-0.107c-0.14-0.024-0.282-0.047-0.419-0.075c-0.17-0.038-0.34-0.082-0.505-0.126 c-0.09-0.025-0.179-0.052-0.267-0.079c-0.561-0.17-1.071-0.386-1.526-0.646c-0.035-0.021-0.07-0.042-0.106-0.062 c-0.481-0.287-0.898-0.62-1.247-1.002c-0.007-0.007-0.015-0.014-0.018-0.021c-0.726-0.802-1.147-1.801-1.22-2.973 c-0.19-3.074 2.023-7.316 7.623-12.209c0.874-0.766 5.356-4.323 6.583-5.403c0.613-0.539 1.037-1.271 1.253-2.058 c0.511 0.4 1.1 0.6 1.8 0.608h23.379c1.692 0 3.071-1.373 3.071-3.071s-1.379-3.073-3.071-3.073H52.018 c-1.178 0-2.189 0.672-2.702 1.647c-0.213-0.205-0.454-0.391-0.73-0.541c-5.187-2.811-11.821 1.616-32.262 23.1 c11.275 12.2 27.4 19.9 45.4 19.914c5.884 0 11.575-0.824 16.966-2.36C77.301 121.3 75.7 120.2 78.6 117.7" class="style0"/><path d="M98.267 104.165c-5.877 6.365-13.753 13.859-18.683 16.619c-0.05 0.027-0.098 0.051-0.148 0.1 c11.369-3.34 21.368-9.89 28.939-18.603C107.218 99.8 103.3 98.7 98.3 104.2" class="style0"/><path d="M47.809 66.808c0.874 4.5 4 7.8 7.6 7.799H71.99c3.662 0 6.742-3.312 7.617-7.799 c6.889-4.948 11.382-13.037 11.382-22.172c0-15.063-12.214-27.281-27.279-27.281c-15.07 0-27.283 12.218-27.283 27.3 C36.427 53.8 40.9 61.9 47.8 66.8 M62.766 24.75c1.128 0 2 0.9 2 2.044c0 1.136-0.92 2.051-2.048 2.1 c-4.109 0-7.808 1.66-10.503 4.349c-2.689 2.691-4.348 6.395-4.348 10.501c0 1.132-0.918 2.05-2.05 2 c-1.131 0-2.045-0.918-2.045-2.05C43.82 33.2 52.3 24.8 62.8 24.8" class="style0"/><path d="M558.94 69.901c-1.176 0-2.123 0.36-2.847 1.083c-0.675 0.681-1.015 1.625-1.015 2.8 c0 1.2 0.3 2.1 1 2.844c0.724 0.7 1.7 1.1 2.8 1.085c1.22 0 2.188-0.365 2.911-1.085 c0.726-0.722 1.085-1.672 1.085-2.844c0-1.222-0.359-2.166-1.085-2.847C561.128 70.3 560.2 69.9 558.9 69.9" class="style2"/><path d="M578.557 29.491c-1.807 0-3.32 0.248-4.538 0.745c-1.219 0.453-2.215 1.175-2.984 2.2 c-0.763 0.948-1.332 2.192-1.689 3.728c-0.32 1.536-0.478 3.341-0.478 5.417v1.898h-5.284v4.744h5.284v29.131h5.421V48.191h9.012 v-4.744h-9.012v-0.949c0-1.354 0.021-2.528 0.067-3.522c0.092-1.04 0.269-1.899 0.544-2.573c0.317-0.724 0.788-1.266 1.421-1.624 c0.677-0.368 1.604-0.545 2.779-0.545c0.812 0 1.7 0.1 2.6 0.202c0.942 0.1 1.9 0.4 3 0.879l1.219-4.534 c-1.219-0.5-2.396-0.84-3.521-1.018C581.267 29.6 580 29.5 578.6 29.5" class="style2"/><path d="M595.427 33.506c-0.771-0.768-1.696-1.151-2.779-1.151c-1.084 0-1.986 0.383-2.709 1.2 c-0.679 0.724-1.021 1.604-1.021 2.644c0 1 0.3 1.9 1 2.574c0.723 0.7 1.6 1 2.7 1 c1.083 0 2.009-0.335 2.779-1.013c0.767-0.679 1.15-1.535 1.15-2.574C596.577 35.1 596.2 34.2 595.4 33.5" class="style2"/><rect x="590.1" y="43.4" width="5.4" height="33.9" class="style2"/><polygon points="158.6,63.5 156.2,63.5 156.2,77.4 147.5,77.4 147.5,30.4 156.2,30.4 156.2,58.1 158.2,57.2 165.9,43.8 175.5,43.8 167.4,56.6 164,59.1 167.7,61.7 176.7,77.4 166.7,77.4" class="style2"/><path d="M188.828 43.806v19.065c0 2.7 0.3 4.7 1 5.905c0.65 1.2 1.9 1.8 3.8 1.8 c1.655 0 3.031-0.492 4.127-1.479c1.094-0.982 1.913-2.191 2.45-3.625V43.806h8.726v23.359c0 1.8 0.1 3.6 0.3 5.4 c0.179 1.8 0.4 3.4 0.8 4.798h-6.578l-1.544-4.966h-0.27c-1.027 1.7-2.462 3.111-4.296 4.2 c-1.833 1.119-4.005 1.678-6.51 1.678c-1.703 0-3.222-0.224-4.566-0.671c-1.339-0.446-2.462-1.186-3.354-2.215 c-0.897-1.029-1.579-2.417-2.047-4.161c-0.472-1.746-0.706-3.938-0.706-6.579V43.806H188.828z" class="style2"/><path d="M236.327 77.368V58.305c0-2.729-0.395-4.697-1.176-5.908c-0.783-1.207-2.114-1.81-3.992-1.81 c-1.658 0-3.057 0.48-4.197 1.443c-1.14 0.962-1.958 2.158-2.449 3.591v21.747h-8.727V43.806h6.914l1.006 4.431h0.269 c1.029-1.432 2.394-2.686 4.095-3.76c1.699-1.074 3.893-1.611 6.578-1.611c1.656 0 3.1 0.2 4.4 0.7 c1.3 0.4 2.4 1.2 3.3 2.215c0.895 1 1.6 2.4 2 4.197c0.447 1.8 0.7 4 0.7 6.544v20.875H236.327z" class="style2"/><path d="M248.878 43.806h4.633v-6.309l8.724-2.484v8.793h8.191v7.384h-8.191v12.89c0 2.3 0.2 4 0.7 5 c0.468 1 1.4 1.5 2.7 1.514c0.894 0 1.668-0.089 2.315-0.269c0.65-0.18 1.376-0.448 2.18-0.807l1.547 6.7 c-1.209 0.58-2.62 1.074-4.231 1.477c-1.61 0.402-3.245 0.604-4.9 0.604c-3.087 0-5.358-0.794-6.812-2.382 c-1.456-1.59-2.181-4.194-2.181-7.821V51.19h-4.633V43.806z" class="style2"/><path d="M277.122 45.752c1.787-0.804 3.917-1.442 6.379-1.911c2.459-0.471 5.031-0.707 7.718-0.707 c2.326 0 4.3 0.3 5.8 0.84c1.567 0.6 2.8 1.4 3.7 2.384c0.916 1 1.6 2.3 1.9 3.7 c0.38 1.4 0.6 3 0.6 4.835c0 1.969-0.065 3.947-0.201 5.941c-0.135 1.99-0.215 3.949-0.236 5.9 c-0.021 1.9 0 3.8 0.2 5.607c0.135 1.8 0.5 3.5 1 5.134h-7.115l-1.411-4.632h-0.335 c-0.896 1.389-2.137 2.584-3.726 3.591c-1.59 1.007-3.636 1.512-6.141 1.512c-1.568 0-2.978-0.236-4.231-0.705 c-1.253-0.471-2.326-1.143-3.22-2.015c-0.897-0.871-1.59-1.901-2.082-3.088c-0.493-1.185-0.739-2.517-0.739-3.994 c0-2.057 0.459-3.792 1.377-5.202c0.917-1.408 2.238-2.55 3.961-3.423c1.722-0.873 3.781-1.477 6.174-1.813 c2.394-0.336 5.069-0.436 8.021-0.301c0.313-2.506 0.137-4.308-0.536-5.403c-0.672-1.097-2.172-1.645-4.497-1.645 c-1.744 0-3.592 0.18-5.537 0.537c-1.947 0.358-3.548 0.829-4.801 1.408L277.122 45.752z M288.197 70.7 c1.745 0 3.131-0.392 4.163-1.175c1.026-0.783 1.789-1.621 2.28-2.52v-4.361c-1.386-0.135-2.716-0.157-3.994-0.068 c-1.273 0.091-2.404 0.291-3.387 0.605c-0.988 0.312-1.769 0.761-2.351 1.344c-0.582 0.58-0.871 1.319-0.871 2.2 c0 1.3 0.4 2.2 1.1 2.922C285.882 70.4 286.9 70.7 288.2 70.7" class="style2"/><path d="M318.083 66.093c0 1.6 0.2 2.7 0.6 3.422c0.4 0.7 1.1 1.1 1.9 1.1 c0.539 0 1.062-0.045 1.576-0.136c0.517-0.089 1.153-0.289 1.913-0.604l0.939 6.848c-0.715 0.357-1.811 0.715-3.287 1.1 c-1.477 0.36-3.001 0.537-4.566 0.537c-2.549 0-4.497-0.593-5.838-1.778c-1.344-1.186-2.016-3.144-2.016-5.873V30.381h8.727V66.093 z" class="style2"/><path d="M330.148 45.752c1.79-0.804 3.915-1.442 6.379-1.911c2.46-0.471 5.033-0.707 7.72-0.707 c2.325 0 4.3 0.3 5.8 0.84c1.564 0.6 2.8 1.4 3.7 2.384c0.917 1 1.6 2.3 1.9 3.7 c0.38 1.4 0.6 3 0.6 4.835c0 1.969-0.068 3.947-0.203 5.941c-0.132 1.99-0.213 3.949-0.233 5.9 c-0.025 1.9 0 3.8 0.2 5.607c0.132 1.8 0.5 3.5 1 5.134h-7.115l-1.408-4.632h-0.335 c-0.895 1.389-2.143 2.584-3.728 3.591c-1.588 1.007-3.635 1.512-6.143 1.512c-1.565 0-2.977-0.236-4.228-0.705 c-1.252-0.471-2.327-1.143-3.223-2.015c-0.894-0.871-1.59-1.901-2.079-3.088c-0.494-1.185-0.738-2.517-0.738-3.994 c0-2.057 0.458-3.792 1.375-5.202c0.917-1.408 2.237-2.55 3.962-3.423c1.722-0.873 3.78-1.477 6.175-1.813s5.07-0.436 8.02-0.301 c0.313-2.506 0.135-4.308-0.537-5.403c-0.67-1.097-2.168-1.645-4.495-1.645c-1.748 0-3.593 0.18-5.538 0.5 c-1.948 0.358-3.546 0.829-4.801 1.408L330.148 45.752z M341.226 70.724c1.746 0 3.131-0.392 4.158-1.175 c1.032-0.783 1.793-1.621 2.284-2.52v-4.361c-1.386-0.135-2.717-0.157-3.993-0.068c-1.275 0.091-2.404 0.291-3.389 0.6 c-0.986 0.312-1.771 0.761-2.351 1.344c-0.583 0.58-0.873 1.319-0.873 2.212c0 1.3 0.4 2.2 1.1 2.9 C338.909 70.4 339.9 70.7 341.2 70.7" class="style2"/><path d="M362.344 37.341c0-1.297 0.481-2.405 1.44-3.323c0.965-0.916 2.296-1.377 3.996-1.377 c1.701 0 3.1 0.5 4.1 1.377c1.048 0.9 1.6 2 1.6 3.323c0 1.3-0.529 2.384-1.577 3.3 c-1.054 0.874-2.429 1.309-4.13 1.309c-1.7 0-3.031-0.435-3.996-1.309C362.825 39.7 362.3 38.6 362.3 37.3 M363.618 43.807h8.726v33.562h-8.726V43.807z" class="style2"/><path d="M393.302 68.105c0-0.894-0.378-1.61-1.139-2.146c-0.762-0.538-1.701-1.029-2.817-1.476 c-1.12-0.448-2.352-0.908-3.693-1.379c-1.343-0.47-2.575-1.118-3.692-1.944c-1.118-0.828-2.058-1.881-2.82-3.156 c-0.762-1.275-1.141-2.92-1.141-4.934c0-3.31 0.983-5.839 2.951-7.586c1.971-1.745 4.812-2.617 8.527-2.617 c2.552 0 4.9 0.3 6.9 0.806c2.057 0.5 3.7 1.1 4.8 1.811l-1.943 6.31c-1.031-0.402-2.329-0.827-3.894-1.274 c-1.568-0.448-3.155-0.672-4.767-0.672c-2.597 0-3.894 1.008-3.894 3.021c0 0.8 0.4 1.5 1.1 1.9 c0.76 0.5 1.7 1 2.8 1.376c1.118 0.4 2.3 0.9 3.7 1.377c1.343 0.5 2.6 1.1 3.7 1.9 c1.116 0.8 2.1 1.8 2.8 3.053c0.761 1.3 1.1 2.9 1.1 4.832c0 3.403-1.085 6.076-3.257 8 c-2.171 1.946-5.426 2.92-9.767 2.92c-2.371 0-4.598-0.302-6.677-0.906c-2.082-0.604-3.772-1.31-5.07-2.113l2.419-6.512 c1.028 0.6 2.4 1.2 4.1 1.712c1.698 0.6 3.4 0.8 5.2 0.84c1.299 0 2.339-0.247 3.123-0.738 C392.911 70.1 393.3 69.3 393.3 68.1" class="style2"/><path d="M432.188 68.765c0-2.271 0.064-4.674 0.198-7.212c0.138-2.536 0.2-5.139 0.2-7.809 c0-1.202-0.132-2.405-0.398-3.607c-0.224-1.201-0.71-2.291-1.472-3.268c-0.713-1.027-1.776-1.851-3.207-2.474 c-1.375-0.623-3.227-0.934-5.537-0.934c-2.45 0-4.806 0.245-7.08 0.732c-2.225 0.492-4.185 1.248-5.874 2.273l1.668 4 c0.625-0.355 1.337-0.668 2.138-0.931c0.847-0.315 1.717-0.558 2.604-0.736c0.935-0.222 1.823-0.378 2.67-0.469 c0.891-0.133 1.716-0.198 2.469-0.198c2.586 0 4.4 0.5 5.3 1.47c0.975 1 1.5 2.7 1.5 5.1 c0 1.07-0.067 2.27-0.202 3.604c-0.62-0.088-1.245-0.133-1.865-0.133h-1.807c-2.444 0-4.695 0.178-6.742 0.5 c-2.003 0.311-3.741 0.867-5.207 1.666c-1.421 0.758-2.538 1.803-3.339 3.141c-0.8 1.291-1.203 2.913-1.203 4.9 c0 1.5 0.2 2.8 0.7 3.938c0.529 1.2 1.2 2.2 2.1 3.005c0.893 0.8 1.9 1.4 3.1 1.9 c1.248 0.4 2.6 0.7 4 0.669c1.426 0 2.695-0.156 3.808-0.47c1.114-0.31 2.091-0.688 2.938-1.132 c0.842-0.49 1.555-1.025 2.138-1.604c0.622-0.621 1.133-1.247 1.532-1.87h0.335l1.402 4.674h3.938 c-0.357-1.247-0.597-2.601-0.734-4.073C432.252 72 432.2 70.4 432.2 68.8 M427.177 68 c-0.221 0.58-0.578 1.181-1.065 1.804c-0.449 0.621-1.022 1.202-1.736 1.735c-0.71 0.49-1.561 0.913-2.539 1.3 c-0.977 0.312-2.09 0.468-3.337 0.468c-1.736 0-3.156-0.49-4.272-1.469c-1.113-1.023-1.67-2.316-1.67-3.874 c0-1.113 0.29-2.022 0.867-2.736c0.625-0.757 1.425-1.334 2.404-1.737c1.026-0.444 2.184-0.731 3.472-0.867 c1.337-0.179 2.694-0.267 4.073-0.267c0.624 0 1.2 0 1.9 0.067c0.669 0 1.3 0 1.9 0.065V67.963z" class="style2"/><path d="M450.292 73.372c-0.667 0.09-1.29 0.136-1.869 0.136c-0.98 0-1.734-0.335-2.268-1.003 c-0.536-0.668-0.803-1.781-0.803-3.338V30.64h-5.341v40.061c0 2.7 0.6 4.7 1.9 5.811c1.289 1.1 2.9 1.7 4.9 1.7 c0.938 0 2.026-0.111 3.271-0.333c1.293-0.224 2.294-0.51 3.006-0.867l-0.602-4.206C451.715 73.1 451 73.3 450.3 73.4" class="style2"/><path d="M480.613 48c-1.197-1.557-2.735-2.737-4.606-3.537c-1.823-0.847-3.982-1.267-6.476-1.267 c-4.717 0-8.347 1.512-10.882 4.539c-2.494 2.982-3.74 7.3-3.74 12.953c0 2.6 0.3 5 0.9 7.2 c0.577 2.1 1.5 4 2.7 5.542c1.202 1.5 2.7 2.7 4.5 3.539c1.867 0.8 4 1.2 6.5 1.2 c4.718 0 8.325-1.49 10.819-4.472c2.538-3.026 3.804-7.366 3.804-13.018c0-2.627-0.289-5.009-0.868-7.147 C482.712 51.4 481.8 49.5 480.6 48 M469.531 73.507c-1.646 0-3.05-0.356-4.203-1.069c-1.159-0.713-2.098-1.646-2.808-2.806 c-0.711-1.156-1.245-2.513-1.602-4.072c-0.311-1.559-0.47-3.183-0.47-4.872c0-8.592 3.028-12.865 9.082-12.819 c1.647 0 3 0.4 4.2 1.067c1.156 0.7 2.1 1.6 2.8 2.737c0.712 1.2 1.2 2.5 1.5 4.1 c0.359 1.6 0.5 3.2 0.5 4.942C478.613 69.3 475.6 73.5 469.5 73.5" class="style2"/><path d="M492.413 33.109c-1.067 0-1.959 0.376-2.668 1.132c-0.672 0.715-1.003 1.581-1.003 2.6 c0 1 0.3 1.9 1 2.534c0.709 0.7 1.6 1 2.7 1c1.071 0 1.98-0.33 2.736-1c0.757-0.666 1.134-1.51 1.134-2.534 c0-1.026-0.377-1.892-1.134-2.607C494.394 33.5 493.5 33.1 492.4 33.1" class="style2"/><rect x="489.9" y="44" width="5.3" height="33.4" class="style2"/><path d="M518.329 73.171c-0.797 0.225-1.779 0.336-2.936 0.336c-1.381 0-2.361-0.469-2.941-1.402 c-0.576-0.979-0.866-2.629-0.866-4.943V48.669h9.079v-4.675h-9.079v-8.145l-5.339 1.533v6.612h-5.209v4.675h5.209v19.496 c0 3.6 0.6 6.2 1.7 7.743c1.114 1.5 3 2.3 5.7 2.271c1.651 0 3.186-0.176 4.608-0.534 c1.426-0.355 2.738-0.82 3.938-1.401l-1.199-4.072C520.022 72.6 519.1 72.9 518.3 73.2" class="style2"/><path d="M547.237 45.598c-1.2-0.936-2.556-1.558-4.069-1.871c-1.515-0.352-3.028-0.53-4.542-0.53 c-4.72 0-8.345 1.488-10.887 4.47c-2.532 2.982-3.801 7.323-3.801 13.022c0 2.7 0.3 5.1 0.9 7.2 c0.577 2.1 1.5 4 2.7 5.542c1.205 1.5 2.7 2.7 4.6 3.538c1.873 0.8 4.1 1.2 6.6 1.2 c2.271 0 4.407-0.312 6.408-0.934c2.049-0.622 3.742-1.471 5.075-2.537l-2.002-3.871c-0.757 0.711-1.894 1.334-3.406 1.9 c-1.514 0.534-3.027 0.802-4.538 0.802c-1.959 0-3.631-0.268-5.008-0.802c-1.334-0.578-2.43-1.381-3.273-2.403 c-0.844-1.068-1.469-2.356-1.868-3.874c-0.399-1.515-0.6-3.25-0.6-5.207h21.43c0.268-1.782 0.403-3.407 0.403-4.872 c0-2.808-0.379-5.052-1.138-6.744C549.421 47.9 548.4 46.5 547.2 45.6 M529.547 57.016c0.312-3.341 1.243-5.698 2.802-7.08 c1.604-1.376 3.718-2.066 6.344-2.066c2.359 0 4.2 0.7 5.5 2.066c1.292 1.3 1.9 3.7 1.9 7.08H529.547z" class="style2"/></g></svg>