<?xml version="1.0" encoding="utf-8"?>
<!-- Generator: Adobe Illustrator 17.0.0, SVG Export Plug-In . SVG Version: 6.00 Build 0)  -->
<!DOCTYPE svg PUBLIC "-//W3C//DTD SVG 1.1//EN" "http://www.w3.org/Graphics/SVG/1.1/DTD/svg11.dtd">
<svg version="1.1" id="_x2014_ÎÓÈ_1" xmlns="http://www.w3.org/2000/svg" xmlns:xlink="http://www.w3.org/1999/xlink" x="0px"
	 y="0px" width="343.308px" height="72px" viewBox="0 0 343.308 72" enable-background="new 0 0 343.308 72" xml:space="preserve">
<rect x="1081.291" y="3893.774" fill="none" width="4647.334" height="1095.347"/>
<text transform="matrix(1 0 0 1 1081.291 4204.3271)"><tspan x="0" y="0" fill="#231F20" font-family="'PTSans-Bold'" font-size="443.6486">medborgar</tspan><tspan x="2066.93" y="0" fill="#231F20" font-family="'PTSans-Regular'" font-size="443.6486">initiativ.fi</tspan></text>
<g>
	<g>
		<g>
			<path fill="#FFFFFF" d="M57.035,60.872c-3.47,3.758-8.119,8.182-11.029,9.81c-0.03,0.016-0.059,0.03-0.089,0.043
				c6.712-1.971,12.614-5.837,17.084-10.981C62.317,58.29,60.007,57.652,57.035,60.872z"/>
		</g>
		<path fill="none" d="M20.264,60.986c0.043,0.684,0.288,1.267,0.711,1.734C20.553,62.252,20.307,61.669,20.264,60.986z"/>
		<path fill="none" d="M48.443,48.419c0.001-0.001,0.003-0.002,0.004-0.004C48.446,48.417,48.444,48.418,48.443,48.419z"/>
		<path fill="none" d="M50.039,47.637c0.027-0.005,0.055-0.008,0.083-0.014C50.095,47.629,50.067,47.632,50.039,47.637z"/>
		<path fill="none" d="M31.899,61.892c0.009-0.004,0.017-0.01,0.025-0.013C31.915,61.883,31.908,61.888,31.899,61.892z"/>
		<path fill="none" d="M48.708,48.231c0.005-0.004,0.01-0.007,0.014-0.009C48.717,48.225,48.712,48.227,48.708,48.231z"/>
		<path fill="none" d="M49.241,47.92c0.013-0.006,0.027-0.012,0.04-0.018C49.268,47.909,49.254,47.914,49.241,47.92z"/>
		<path fill="none" d="M49.775,47.706c0.022-0.007,0.044-0.013,0.067-0.019C49.819,47.694,49.797,47.699,49.775,47.706z"/>
		<path fill="none" d="M48.974,48.064c0.009-0.005,0.017-0.009,0.024-0.014C48.991,48.055,48.982,48.06,48.974,48.064z"/>
		<path fill="none" d="M49.507,47.801c0.018-0.008,0.036-0.013,0.054-0.02C49.544,47.788,49.525,47.793,49.507,47.801z"/>
		<path fill="none" d="M30.821,62.427c0.069-0.032,0.14-0.066,0.21-0.1C30.961,62.361,30.891,62.394,30.821,62.427z"/>
		<path fill="none" d="M32.781,61.398c0.076-0.044,0.15-0.087,0.225-0.132C32.931,61.311,32.857,61.354,32.781,61.398z"/>
		<path fill="none" d="M24.094,63.982c0.092,0.006,0.183,0.012,0.279,0.015C24.278,63.994,24.186,63.988,24.094,63.982z"/>
		<path fill="none" d="M25.56,63.958c0.083-0.007,0.166-0.015,0.249-0.024C25.725,63.943,25.643,63.951,25.56,63.958z"/>
		<path fill="none" d="M23.36,63.893c0.145,0.025,0.294,0.047,0.448,0.063C23.654,63.94,23.505,63.918,23.36,63.893z"/>
		<path fill="none" d="M22.821,63.776c0.096,0.026,0.195,0.051,0.295,0.073C23.016,63.827,22.917,63.802,22.821,63.776z"/>
		<path fill="none" d="M21.775,63.353c0.265,0.151,0.563,0.277,0.89,0.376C22.339,63.63,22.041,63.504,21.775,63.353z"/>
		<path fill="none" d="M29.973,62.802c0.018-0.007,0.036-0.015,0.054-0.023C30.009,62.786,29.991,62.794,29.973,62.802z"/>
		<path fill="none" d="M28.949,63.189c0.071-0.024,0.14-0.049,0.21-0.074C29.089,63.141,29.02,63.165,28.949,63.189z"/>
		<path fill="none" d="M28.15,63.449c0.033-0.01,0.067-0.022,0.099-0.031C28.216,63.428,28.182,63.439,28.15,63.449z"/>
		<path fill="none" d="M27.188,63.697c0.074-0.017,0.148-0.033,0.224-0.052C27.336,63.664,27.262,63.68,27.188,63.697z"/>
		<path fill="none" d="M26.452,63.845c0.052-0.009,0.106-0.021,0.159-0.03C26.558,63.824,26.503,63.836,26.452,63.845z"/>
		<path fill="none" d="M51.319,47.737c0.053,0.022,0.104,0.05,0.157,0.077C51.423,47.787,51.372,47.759,51.319,47.737z"/>
		<path fill="none" d="M51.072,47.654c0.047,0.012,0.093,0.03,0.139,0.046C51.164,47.684,51.118,47.666,51.072,47.654z"/>
		<path fill="none" d="M51.56,47.856c0.078,0.044,0.157,0.096,0.233,0.153C51.716,47.951,51.638,47.9,51.56,47.856z"/>
		<path fill="none" d="M21.714,63.317c-0.28-0.167-0.524-0.361-0.727-0.584C21.19,62.955,21.433,63.149,21.714,63.317z"/>
		<path fill="none" d="M25.125,63.988c-0.082,0.004-0.166,0.009-0.247,0.011C24.959,63.998,25.042,63.992,25.125,63.988z"/>
		<path fill="none" d="M50.82,47.603c0.042,0.005,0.081,0.016,0.123,0.024C50.902,47.619,50.862,47.609,50.82,47.603z"/>
		<path fill="none" d="M50.303,47.597c0.032-0.003,0.063-0.003,0.095-0.005C50.366,47.594,50.336,47.594,50.303,47.597z"/>
		<path fill="none" d="M50.563,47.585c0.036,0.001,0.073,0.005,0.109,0.007C50.636,47.589,50.599,47.585,50.563,47.585z"/>
		<path fill="#ACAE24" d="M36,0C16.117,0,0,16.117,0,36c0,9.408,3.61,17.972,9.521,24.384C21.444,47.871,25.314,45.29,28.339,46.929
			c1.377,0.747,1.326,2.805,0.211,3.784c-0.715,0.63-3.33,2.705-3.84,3.151c-3.266,2.854-4.557,5.328-4.446,7.121
			c0.043,0.684,0.289,1.267,0.711,1.734c0.002,0.005,0.007,0.008,0.011,0.013c0.203,0.223,0.448,0.417,0.727,0.584
			c0.021,0.013,0.042,0.024,0.062,0.036c0.265,0.151,0.564,0.277,0.89,0.376c0.051,0.016,0.103,0.032,0.155,0.046
			c0.096,0.026,0.195,0.051,0.295,0.073c0.081,0.017,0.162,0.03,0.244,0.044c0.145,0.025,0.294,0.047,0.448,0.063
			c0.094,0.01,0.189,0.019,0.286,0.026c0.092,0.006,0.183,0.012,0.279,0.015c0.164,0.006,0.334,0.007,0.506,0.003
			c0.081-0.002,0.165-0.008,0.247-0.011c0.142-0.007,0.288-0.017,0.435-0.03c0.083-0.007,0.166-0.015,0.249-0.024
			c0.21-0.024,0.424-0.052,0.643-0.089c0.051-0.009,0.106-0.021,0.159-0.03c0.189-0.035,0.381-0.073,0.577-0.118
			c0.074-0.017,0.148-0.033,0.224-0.052c0.242-0.059,0.488-0.122,0.738-0.196c0.033-0.01,0.067-0.022,0.099-0.031
			c0.23-0.07,0.464-0.146,0.7-0.229c0.071-0.024,0.14-0.049,0.21-0.074c0.268-0.097,0.538-0.2,0.814-0.314
			c0.018-0.007,0.036-0.015,0.054-0.023c0.261-0.109,0.526-0.227,0.794-0.352c0.069-0.032,0.14-0.066,0.21-0.1
			c0.287-0.137,0.575-0.279,0.868-0.435c0.009-0.004,0.017-0.01,0.025-0.013c0.282-0.151,0.57-0.313,0.857-0.481
			c0.076-0.044,0.15-0.087,0.225-0.132c0.298-0.177,0.599-0.361,0.901-0.558c6.398-4.157,13.919-11.945,13.649-11.502
			c0.288-0.298,0.586-0.561,0.887-0.787c0.001-0.001,0.003-0.002,0.004-0.004c0.087-0.065,0.174-0.126,0.261-0.184
			c0.005-0.004,0.01-0.007,0.014-0.009c0.084-0.056,0.168-0.109,0.252-0.158c0.009-0.005,0.017-0.009,0.024-0.014
			c0.081-0.046,0.162-0.09,0.243-0.13c0.013-0.006,0.027-0.012,0.04-0.018c0.075-0.036,0.151-0.07,0.226-0.101
			c0.018-0.008,0.036-0.013,0.054-0.02c0.07-0.028,0.142-0.053,0.213-0.075c0.023-0.007,0.044-0.013,0.067-0.019
			c0.067-0.018,0.132-0.036,0.198-0.05c0.027-0.005,0.055-0.008,0.083-0.014c0.061-0.01,0.121-0.02,0.181-0.026
			c0.032-0.003,0.063-0.003,0.095-0.005c0.055-0.003,0.11-0.007,0.165-0.007c0.036,0.001,0.073,0.005,0.109,0.007
			c0.05,0.003,0.099,0.005,0.148,0.011c0.042,0.005,0.081,0.016,0.123,0.024c0.043,0.009,0.085,0.015,0.128,0.026
			c0.047,0.012,0.093,0.03,0.139,0.046c0.037,0.013,0.073,0.023,0.109,0.037c0.053,0.022,0.104,0.05,0.157,0.077
			c0.028,0.015,0.055,0.025,0.084,0.042c0.078,0.044,0.157,0.096,0.233,0.153c3.589,2.696-7.752,13.155-14.237,17.859
			c-2.242,1.625-0.401,3.151,1.259,1.875c3.551-2.728,8.164-6.701,13.275-12.651c2.99-3.483,4.952-4.948,6.657-3.55
			c1.523,1.248,0.792,3.121-1.883,6.076c-0.385,0.425-5.046,5.919-11.038,11.045c-1.669,1.427-0.738,2.098,0.069,1.959
			c0.091-0.027,0.18-0.054,0.271-0.081c0.029-0.013,0.058-0.027,0.088-0.043c2.898-1.623,7.53-6.029,10.984-9.771
			c2.96-3.206,5.261-2.572,5.941-1.122c5.494-6.321,8.822-14.574,8.822-23.606C72.001,16.117,55.884,0,36,0z M34.539,48.294
			c-0.095-0.007-0.187-0.015-0.281-0.023c0.101-0.034,0.203-0.067,0.302-0.101C34.553,48.212,34.546,48.253,34.539,48.294z"/>
		<path fill="#FFFFFF" d="M57.239,60.728c-3.455,3.742-8.087,8.149-10.984,9.771c-0.03,0.016-0.059,0.03-0.088,0.043
			c6.685-1.964,12.561-5.813,17.013-10.937C62.5,58.156,60.199,57.522,57.239,60.728z"/>
		<path fill="#FFFFFF" d="M34.539,48.294c0.007-0.041,0.014-0.082,0.021-0.124c-0.1,0.033-0.202,0.067-0.302,0.101
			C34.352,48.279,34.444,48.287,34.539,48.294z"/>
		<path fill="#FFFFFF" d="M22.666,63.729c0.051,0.016,0.103,0.032,0.155,0.046C22.769,63.761,22.717,63.745,22.666,63.729z"/>
		<path fill="#FFFFFF" d="M21.714,63.317c0.021,0.013,0.042,0.024,0.062,0.036C21.755,63.341,21.735,63.329,21.714,63.317z"/>
		<path fill="#FFFFFF" d="M27.412,63.645c0.242-0.058,0.488-0.122,0.738-0.196C27.9,63.523,27.654,63.587,27.412,63.645z"/>
		<path fill="#FFFFFF" d="M24.878,64c-0.172,0.004-0.342,0.003-0.506-0.003C24.537,64.002,24.706,64.004,24.878,64z"/>
		<path fill="#FFFFFF" d="M26.611,63.815c0.189-0.035,0.381-0.073,0.577-0.118C26.992,63.741,26.799,63.78,26.611,63.815z"/>
		<path fill="#FFFFFF" d="M28.249,63.418c0.23-0.07,0.464-0.146,0.7-0.229C28.713,63.272,28.478,63.348,28.249,63.418z"/>
		<path fill="#FFFFFF" d="M23.808,63.956c0.094,0.01,0.189,0.019,0.286,0.026C23.997,63.975,23.902,63.966,23.808,63.956z"/>
		<path fill="#FFFFFF" d="M23.116,63.849c0.08,0.017,0.162,0.03,0.244,0.044C23.278,63.879,23.197,63.865,23.116,63.849z"/>
		<path fill="#FFFFFF" d="M25.125,63.988c0.142-0.007,0.288-0.017,0.435-0.03C25.413,63.972,25.267,63.982,25.125,63.988z"/>
		<path fill="#FFFFFF" d="M25.809,63.934c0.21-0.024,0.424-0.052,0.643-0.089C26.233,63.882,26.019,63.91,25.809,63.934z"/>
		<path fill="#FFFFFF" d="M20.986,62.732c-0.004-0.004-0.009-0.008-0.011-0.013C20.978,62.724,20.982,62.728,20.986,62.732z"/>
		<path fill="#FFFFFF" d="M48.721,48.222c0.084-0.056,0.168-0.109,0.252-0.158C48.889,48.114,48.805,48.166,48.721,48.222z"/>
		<path fill="#FFFFFF" d="M49.281,47.902c0.075-0.036,0.151-0.07,0.226-0.101C49.432,47.832,49.356,47.866,49.281,47.902z"/>
		<path fill="#FFFFFF" d="M50.672,47.592c0.05,0.003,0.099,0.005,0.148,0.011C50.771,47.597,50.722,47.595,50.672,47.592z"/>
		<path fill="#FFFFFF" d="M48.998,48.051c0.081-0.046,0.162-0.09,0.243-0.13C49.161,47.961,49.079,48.004,48.998,48.051z"/>
		<path fill="#FFFFFF" d="M50.943,47.627c0.043,0.009,0.085,0.015,0.128,0.026C51.029,47.642,50.986,47.636,50.943,47.627z"/>
		<path fill="#FFFFFF" d="M50.122,47.623c0.061-0.01,0.121-0.02,0.181-0.026C50.243,47.603,50.183,47.613,50.122,47.623z"/>
		<path fill="#FFFFFF" d="M49.562,47.781c0.07-0.028,0.142-0.053,0.213-0.075C49.704,47.728,49.631,47.754,49.562,47.781z"/>
		<path fill="#FFFFFF" d="M49.842,47.687c0.067-0.018,0.132-0.036,0.198-0.05C49.974,47.651,49.908,47.669,49.842,47.687z"/>
		<path fill="#FFFFFF" d="M50.398,47.591c0.055-0.004,0.11-0.007,0.165-0.007C50.508,47.584,50.453,47.588,50.398,47.591z"/>
		<path fill="#FFFFFF" d="M51.476,47.814c0.028,0.015,0.055,0.025,0.084,0.042C51.531,47.84,51.504,47.829,51.476,47.814z"/>
		<path fill="#FFFFFF" d="M30.027,62.778c0.261-0.109,0.526-0.227,0.794-0.352C30.553,62.551,30.288,62.67,30.027,62.778z"/>
		<path fill="#FFFFFF" d="M31.031,62.327c0.287-0.137,0.575-0.279,0.868-0.435C31.607,62.048,31.318,62.19,31.031,62.327z"/>
		<path fill="#FFFFFF" d="M48.447,48.415c0.087-0.065,0.174-0.126,0.261-0.184C48.621,48.289,48.533,48.351,48.447,48.415z"/>
		<path fill="#FFFFFF" d="M29.159,63.115c0.268-0.097,0.538-0.2,0.814-0.314C29.697,62.915,29.427,63.018,29.159,63.115z"/>
		<path fill="#FFFFFF" d="M33.006,61.266c0.298-0.177,0.599-0.361,0.901-0.558C33.604,60.905,33.304,61.089,33.006,61.266z"/>
		<path fill="#FFFFFF" d="M31.924,61.879c0.282-0.151,0.57-0.313,0.857-0.481C32.494,61.566,32.206,61.728,31.924,61.879z"/>
		<path fill="#FFFFFF" d="M51.211,47.699c0.037,0.013,0.073,0.023,0.109,0.037C51.283,47.722,51.248,47.713,51.211,47.699z"/>
		<path fill="#FFFFFF" stroke="#FFFFFF" stroke-width="2.8347" stroke-miterlimit="10" d="M36.276,44.556"/>
		<path fill="#FFFFFF" stroke="#FFFFFF" stroke-width="2.8347" stroke-miterlimit="10" d="M36.276,28.155"/>
		<g>
			<path fill="#FFFFFF" d="M45.827,68.664c5.992-5.125,10.653-10.619,11.038-11.045c2.674-2.956,3.405-4.829,1.883-6.076
				c-1.705-1.397-3.667,0.067-6.657,3.55c-5.111,5.95-9.724,9.923-13.275,12.651c-1.66,1.276-3.501-0.25-1.259-1.875
				c6.485-4.704,17.826-15.163,14.237-17.859c-0.076-0.058-0.155-0.109-0.233-0.153c-0.028-0.016-0.056-0.027-0.084-0.042
				c-0.053-0.027-0.104-0.055-0.157-0.077c-0.036-0.014-0.072-0.024-0.109-0.037c-0.046-0.016-0.092-0.034-0.139-0.046
				c-0.043-0.011-0.085-0.018-0.128-0.026c-0.042-0.008-0.081-0.019-0.123-0.024c-0.049-0.007-0.099-0.009-0.148-0.011
				c-0.036-0.003-0.073-0.007-0.109-0.007c-0.055-0.001-0.11,0.003-0.165,0.007c-0.032,0.002-0.063,0.002-0.095,0.005
				c-0.06,0.006-0.12,0.017-0.181,0.026c-0.027,0.006-0.055,0.009-0.083,0.014c-0.066,0.014-0.131,0.032-0.198,0.05
				c-0.023,0.006-0.045,0.011-0.067,0.019c-0.071,0.022-0.143,0.047-0.213,0.075c-0.018,0.007-0.036,0.012-0.054,0.02
				c-0.075,0.03-0.151,0.064-0.226,0.101c-0.014,0.007-0.027,0.012-0.04,0.018c-0.08,0.04-0.162,0.084-0.243,0.13
				c-0.007,0.005-0.016,0.009-0.024,0.014c-0.084,0.049-0.169,0.102-0.252,0.158c-0.004,0.002-0.009,0.005-0.014,0.009
				c-0.087,0.058-0.174,0.119-0.261,0.184c-0.001,0.001-0.003,0.003-0.004,0.004c-0.138,0.104-0.277,0.217-0.414,0.337
				c-0.078,0.07-0.154,0.146-0.234,0.22c-0.046,0.044-0.093,0.085-0.14,0.132c0.001,0,0.001,0.001,0.001,0.001
				c-0.033,0.034-0.068,0.063-0.101,0.096c0.121-0.197-1.306,1.239-3.489,3.259c-0.03-0.001-0.058-0.008-0.088-0.008H30.341
				c-0.988,0-1.791,0.802-1.791,1.791c0,0.99,0.803,1.792,1.791,1.792h1.982c-0.005,0.041,4.315,0.031,7.698,0.019
				c-1.964,1.662-4.094,3.337-6.114,4.649c-0.302,0.197-0.603,0.381-0.901,0.558c-0.075,0.045-0.149,0.089-0.225,0.132
				c-0.287,0.168-0.575,0.33-0.857,0.481c-0.009,0.004-0.016,0.009-0.025,0.013c-0.292,0.156-0.58,0.298-0.868,0.435
				c-0.071,0.034-0.141,0.068-0.21,0.1c-0.268,0.125-0.533,0.243-0.794,0.352c-0.018,0.008-0.036,0.016-0.054,0.023
				c-0.276,0.114-0.546,0.216-0.814,0.314c-0.07,0.025-0.14,0.05-0.21,0.074c-0.236,0.083-0.47,0.159-0.7,0.229
				c-0.032,0.009-0.067,0.021-0.099,0.031c-0.25,0.073-0.496,0.138-0.738,0.196c-0.076,0.018-0.15,0.035-0.224,0.052
				c-0.196,0.044-0.388,0.083-0.577,0.118c-0.053,0.009-0.107,0.021-0.159,0.03c-0.219,0.037-0.432,0.066-0.643,0.089
				c-0.084,0.009-0.166,0.017-0.249,0.024c-0.147,0.013-0.292,0.023-0.435,0.03c-0.083,0.004-0.166,0.009-0.247,0.011
				c-0.172,0.004-0.342,0.003-0.506-0.003c-0.095-0.003-0.187-0.009-0.279-0.015c-0.097-0.007-0.192-0.016-0.286-0.026
				c-0.154-0.016-0.303-0.037-0.448-0.063c-0.082-0.014-0.165-0.028-0.244-0.044c-0.1-0.022-0.199-0.048-0.295-0.073
				c-0.052-0.015-0.104-0.03-0.155-0.046c-0.327-0.099-0.625-0.225-0.89-0.376c-0.02-0.012-0.04-0.024-0.062-0.036
				c-0.281-0.167-0.524-0.361-0.727-0.584c-0.004-0.004-0.009-0.008-0.011-0.013c-0.423-0.467-0.669-1.05-0.711-1.734
				c-0.111-1.793,1.18-4.267,4.446-7.121c0.51-0.447,3.124-2.522,3.84-3.151c0.358-0.315,0.605-0.742,0.731-1.2
				c0.298,0.22,0.662,0.355,1.06,0.355h13.637c0.987,0,1.791-0.801,1.791-1.791c0-0.99-0.804-1.792-1.791-1.792H30.341
				c-0.687,0-1.277,0.392-1.576,0.961c-0.124-0.12-0.265-0.228-0.426-0.316c-3.025-1.639-6.895,0.943-18.818,13.455
				C16.098,67.526,25.526,72,36,72c3.432,0,6.751-0.48,9.896-1.377C45.089,70.762,44.158,70.091,45.827,68.664z"/>
			<path fill="#FFFFFF" d="M57.317,60.758c-3.428,3.713-8.022,8.084-10.897,9.693c-0.03,0.016-0.058,0.03-0.087,0.043
				c6.631-1.948,12.464-5.768,16.88-10.85C62.538,58.206,60.255,57.577,57.317,60.758z"/>
			<path fill="#FFFFFF" d="M27.886,38.968c0.51,2.617,2.305,4.549,4.441,4.549h9.663c2.136,0,3.933-1.932,4.443-4.549
				c4.019-2.886,6.639-7.604,6.639-12.932c0-8.786-7.124-15.913-15.911-15.913c-8.79,0-15.914,7.127-15.914,15.913
				C21.247,31.364,23.867,36.082,27.886,38.968z M36.61,14.437c0.658,0,1.195,0.535,1.195,1.193c0,0.662-0.537,1.196-1.195,1.196
				c-2.397,0-4.554,0.969-6.126,2.537c-1.569,1.57-2.536,3.73-2.536,6.125c0,0.66-0.535,1.196-1.196,1.196
				c-0.66,0-1.193-0.536-1.193-1.196C25.559,19.383,30.505,14.438,36.61,14.437z"/>
		</g>
	</g>
	<g>
		<path fill="#939598" d="M332.797,17.202c-1.054,0-1.937,0.145-2.647,0.434c-0.711,0.264-1.292,0.686-1.741,1.265
			c-0.445,0.553-0.776,1.279-0.985,2.175c-0.187,0.896-0.279,1.949-0.279,3.159v1.107h-3.082v2.767h3.082v16.991h3.162V28.109h5.256
			v-2.767h-5.256v-0.554c0-0.789,0.012-1.474,0.039-2.054c0.054-0.606,0.157-1.108,0.317-1.501c0.185-0.422,0.46-0.738,0.829-0.947
			c0.395-0.214,0.935-0.318,1.621-0.318c0.473,0,0.975,0.04,1.502,0.118c0.55,0.079,1.132,0.252,1.738,0.513l0.711-2.645
			c-0.711-0.291-1.398-0.49-2.053-0.593C334.378,17.255,333.641,17.202,332.797,17.202z"/>
		<path fill="#939598" d="M342.637,19.544c-0.449-0.448-0.989-0.672-1.621-0.672c-0.632,0-1.159,0.224-1.58,0.672
			c-0.396,0.422-0.595,0.936-0.595,1.542c0,0.606,0.199,1.106,0.595,1.502c0.421,0.395,0.948,0.591,1.58,0.591
			c0.632,0,1.172-0.195,1.621-0.591c0.447-0.396,0.671-0.896,0.671-1.502C343.308,20.48,343.084,19.966,342.637,19.544z"/>
		<rect x="339.515" y="25.342" fill="#939598" width="3.162" height="19.758"/>
		<path fill="#939598" d="M85.278,21.157c0-0.758,0.281-1.406,0.844-1.942c0.562-0.536,1.34-0.804,2.334-0.804
			c0.993,0,1.797,0.268,2.412,0.804c0.614,0.536,0.922,1.183,0.922,1.942c0,0.758-0.308,1.392-0.922,1.902
			c-0.615,0.51-1.418,0.764-2.412,0.764c-0.994,0-1.772-0.255-2.334-0.764C85.559,22.55,85.278,21.916,85.278,21.157z
			 M86.024,25.521h5.099v19.61h-5.099V25.521z"/>
		<path fill="#939598" d="M106.67,45.131V33.993c0-1.595-0.23-2.746-0.687-3.452c-0.457-0.706-1.234-1.059-2.333-1.059
			c-0.968,0-1.785,0.281-2.452,0.843c-0.666,0.562-1.144,1.262-1.431,2.098v12.708h-5.099v-19.61h4.04l0.588,2.588h0.157
			c0.601-0.836,1.398-1.569,2.392-2.196c0.994-0.627,2.276-0.941,3.844-0.941c0.967,0,1.83,0.131,2.588,0.392
			c0.758,0.262,1.398,0.693,1.922,1.294c0.522,0.602,0.915,1.419,1.176,2.451c0.261,1.033,0.392,2.308,0.392,3.824v12.198H106.67z"
			/>
		<path fill="#939598" d="M122.123,35.797l0.667,3.02h0.197l0.549-3.099l3.334-10.197h5.491l-8.197,19.807h-3.098l-8.511-19.807
			h5.922L122.123,35.797z"/>
		<path fill="#939598" d="M133.223,26.658c1.045-0.471,2.288-0.843,3.726-1.118c1.437-0.275,2.941-0.412,4.511-0.412
			c1.359,0,2.496,0.164,3.411,0.49c0.915,0.327,1.641,0.791,2.177,1.392c0.535,0.602,0.915,1.321,1.138,2.157
			c0.222,0.837,0.333,1.778,0.333,2.824c0,1.151-0.039,2.308-0.118,3.471c-0.078,1.164-0.124,2.308-0.137,3.432
			c-0.014,1.124,0.02,2.216,0.097,3.275c0.079,1.059,0.275,2.059,0.589,3h-4.158l-0.824-2.706h-0.195
			c-0.523,0.811-1.25,1.51-2.177,2.098c-0.928,0.589-2.125,0.883-3.589,0.883c-0.916,0-1.739-0.137-2.471-0.412
			c-0.733-0.275-1.36-0.667-1.883-1.177c-0.523-0.509-0.928-1.111-1.216-1.804c-0.288-0.692-0.431-1.471-0.431-2.334
			c0-1.202,0.268-2.216,0.804-3.04c0.535-0.824,1.307-1.49,2.314-2c1.006-0.51,2.209-0.863,3.608-1.059
			c1.398-0.196,2.961-0.255,4.687-0.176c0.183-1.464,0.078-2.517-0.314-3.157c-0.392-0.641-1.269-0.961-2.628-0.961
			c-1.02,0-2.098,0.105-3.235,0.314c-1.138,0.209-2.073,0.484-2.805,0.823L133.223,26.658z M136.752,20.339
			c0-1.098,0.373-2,1.118-2.706c0.746-0.706,1.823-1.059,3.235-1.059c1.333,0,2.392,0.32,3.177,0.961
			c0.784,0.641,1.177,1.576,1.177,2.804c0,1.02-0.387,1.889-1.157,2.608c-0.772,0.719-1.838,1.079-3.197,1.079
			c-1.386,0-2.458-0.334-3.216-1C137.131,22.358,136.752,21.463,136.752,20.339z M139.694,41.249c1.02,0,1.83-0.229,2.432-0.686
			c0.602-0.457,1.045-0.947,1.333-1.471v-2.549c-0.811-0.079-1.588-0.091-2.334-0.04c-0.744,0.053-1.405,0.171-1.98,0.353
			c-0.576,0.183-1.034,0.445-1.373,0.785c-0.339,0.34-0.51,0.771-0.51,1.294c0,0.732,0.216,1.301,0.647,1.706
			C138.341,41.046,138.936,41.249,139.694,41.249z M139.576,20.339c0,0.419,0.157,0.739,0.471,0.961
			c0.313,0.222,0.666,0.333,1.058,0.333c0.444,0,0.81-0.104,1.098-0.314c0.288-0.209,0.432-0.536,0.432-0.981
			c0-0.444-0.151-0.778-0.451-1c-0.301-0.222-0.661-0.333-1.079-0.333c-0.392,0-0.745,0.105-1.058,0.314
			C139.734,19.528,139.576,19.868,139.576,20.339z"/>
		<path fill="#939598" d="M163.506,45.131V33.993c0-1.595-0.23-2.746-0.687-3.452c-0.457-0.706-1.235-1.059-2.333-1.059
			c-0.968,0-1.785,0.281-2.452,0.843c-0.666,0.562-1.144,1.262-1.431,2.098v12.708h-5.099v-19.61h4.04l0.588,2.588h0.157
			c0.601-0.836,1.398-1.569,2.392-2.196c0.993-0.627,2.275-0.941,3.844-0.941c0.967,0,1.83,0.131,2.589,0.392
			c0.758,0.262,1.398,0.693,1.922,1.294c0.522,0.602,0.915,1.419,1.176,2.451c0.261,1.033,0.392,2.308,0.392,3.824v12.198H163.506z"
			/>
		<path fill="#939598" d="M172.056,26.658c1.045-0.471,2.288-0.843,3.726-1.118c1.437-0.275,2.941-0.412,4.511-0.412
			c1.359,0,2.496,0.164,3.411,0.49c0.915,0.327,1.641,0.791,2.177,1.392c0.535,0.602,0.915,1.321,1.137,2.157
			c0.222,0.837,0.333,1.778,0.333,2.824c0,1.151-0.039,2.308-0.117,3.471c-0.079,1.164-0.124,2.308-0.137,3.432
			c-0.013,1.124,0.02,2.216,0.097,3.275c0.079,1.059,0.275,2.059,0.589,3h-4.158l-0.824-2.706h-0.195
			c-0.523,0.811-1.25,1.51-2.177,2.098c-0.928,0.589-2.125,0.883-3.589,0.883c-0.916,0-1.739-0.137-2.471-0.412
			c-0.733-0.275-1.36-0.667-1.883-1.177c-0.523-0.509-0.928-1.111-1.215-1.804c-0.288-0.692-0.432-1.471-0.432-2.334
			c0-1.202,0.268-2.216,0.804-3.04c0.535-0.824,1.307-1.49,2.314-2c1.006-0.51,2.209-0.863,3.608-1.059
			c1.398-0.196,2.961-0.255,4.687-0.176c0.183-1.464,0.078-2.517-0.314-3.157c-0.392-0.641-1.269-0.961-2.628-0.961
			c-1.02,0-2.098,0.105-3.235,0.314c-1.138,0.209-2.073,0.484-2.805,0.823L172.056,26.658z M178.528,41.249
			c1.02,0,1.83-0.229,2.432-0.686c0.601-0.457,1.045-0.947,1.333-1.471v-2.549c-0.811-0.079-1.588-0.091-2.334-0.04
			c-0.745,0.053-1.405,0.171-1.98,0.353c-0.576,0.183-1.033,0.445-1.373,0.785c-0.339,0.34-0.51,0.771-0.51,1.294
			c0,0.732,0.216,1.301,0.647,1.706C177.174,41.046,177.769,41.249,178.528,41.249z"/>
		<path fill="#939598" d="M201.746,30.306c-0.811-0.287-1.543-0.431-2.196-0.431c-0.915,0-1.68,0.242-2.294,0.725
			c-0.615,0.484-1.027,1.105-1.236,1.863v12.669h-5.099v-19.61h3.961l0.589,2.588h0.157c0.444-0.967,1.045-1.712,1.804-2.235
			c0.758-0.523,1.647-0.784,2.668-0.784c0.679,0,1.451,0.144,2.314,0.431L201.746,30.306z"/>
		<path fill="#939598" d="M204.766,21.309c0-0.601,0.203-1.118,0.608-1.549c0.406-0.431,0.922-0.647,1.55-0.647
			c0.627,0,1.163,0.216,1.607,0.647c0.445,0.432,0.666,0.948,0.666,1.549c0,0.602-0.222,1.098-0.666,1.49
			c-0.445,0.392-0.98,0.588-1.607,0.588c-0.628,0-1.144-0.196-1.55-0.588C204.969,22.407,204.766,21.911,204.766,21.309z
			 M205.433,25.521h3.137v19.61h-3.137V25.521z"/>
		<path fill="#939598" d="M225.994,45.131V33.953c0-2.04-0.294-3.575-0.882-4.608c-0.588-1.033-1.667-1.549-3.236-1.549
			c-1.386,0-2.529,0.372-3.431,1.118c-0.902,0.745-1.537,1.681-1.902,2.804v13.414h-3.137v-19.61h2.196l0.588,2.392h0.157
			c0.627-0.836,1.471-1.523,2.53-2.059c1.058-0.536,2.319-0.804,3.785-0.804c1.071,0,2.012,0.125,2.824,0.373
			c0.811,0.249,1.484,0.686,2.02,1.314c0.536,0.627,0.941,1.47,1.216,2.53c0.275,1.059,0.412,2.399,0.412,4.02v11.845H225.994z"/>
		<path fill="#939598" d="M232.986,21.309c0-0.601,0.202-1.118,0.608-1.549c0.406-0.431,0.922-0.647,1.549-0.647
			c0.628,0,1.163,0.216,1.608,0.647c0.444,0.432,0.667,0.948,0.667,1.549c0,0.602-0.223,1.098-0.667,1.49
			c-0.445,0.392-0.98,0.588-1.608,0.588c-0.628,0-1.144-0.196-1.549-0.588C233.188,22.407,232.986,21.911,232.986,21.309z
			 M233.653,25.521h3.137v19.61h-3.137V25.521z"/>
		<path fill="#939598" d="M240.202,25.521h3.059v-3.883l3.137-0.902v4.785h5.334v2.745h-5.334v10.865c0,1.36,0.17,2.321,0.51,2.883
			c0.339,0.563,0.915,0.843,1.726,0.843c0.68,0,1.255-0.072,1.726-0.216c0.47-0.144,0.993-0.333,1.569-0.569l0.706,2.392
			c-0.706,0.34-1.478,0.615-2.314,0.824c-0.837,0.209-1.74,0.314-2.706,0.314c-1.595,0-2.719-0.451-3.373-1.353
			c-0.654-0.902-0.98-2.412-0.98-4.53V28.266h-3.059V25.521z"/>
		<path fill="#939598" d="M254.797,21.309c0-0.601,0.785-1.118,1.191-1.549c0.405-0.431,0.922-0.647,1.549-0.647
			c0.628,0,1.163,0.216,1.608,0.647c0.444,0.432,0.667,0.948,0.667,1.549c0,0.602-0.223,1.098-0.667,1.49
			c-0.445,0.392-0.98,0.588-1.608,0.588c-0.628,0-1.144-0.196-1.549-0.588C255.582,22.407,254.797,21.911,254.797,21.309z
			 M256.047,25.521h3.138v19.61h-3.138V25.521z"/>
		<path fill="#939598" d="M263.706,26.972c0.993-0.601,2.151-1.046,3.471-1.334c1.32-0.288,2.699-0.431,4.138-0.431
			c1.36,0,2.452,0.183,3.275,0.549c0.824,0.367,1.451,0.843,1.883,1.432c0.431,0.588,0.719,1.235,0.862,1.942
			c0.144,0.706,0.215,1.412,0.215,2.118c0,1.569-0.039,3.098-0.117,4.589c-0.079,1.49-0.118,2.902-0.118,4.236
			c0,0.968,0.039,1.883,0.118,2.746c0.078,0.863,0.222,1.661,0.431,2.392h-2.314l-0.824-2.745h-0.197
			c-0.235,0.366-0.529,0.726-0.882,1.079c-0.354,0.353-0.779,0.667-1.275,0.941c-0.497,0.275-1.073,0.504-1.725,0.686
			c-0.654,0.183-1.4,0.275-2.236,0.275c-0.838,0-1.615-0.131-2.334-0.392c-0.719-0.261-1.34-0.634-1.863-1.118
			c-0.523-0.484-0.935-1.065-1.236-1.745c-0.301-0.68-0.451-1.451-0.451-2.314c0-1.15,0.236-2.111,0.706-2.883
			c0.471-0.771,1.131-1.386,1.982-1.843c0.849-0.457,1.868-0.785,3.059-0.981c1.189-0.196,2.503-0.294,3.942-0.294
			c0.366,0,0.725,0,1.078,0c0.354,0,0.713,0.026,1.079,0.078c0.078-0.784,0.117-1.49,0.117-2.118c0-1.438-0.288-2.445-0.862-3.02
			c-0.576-0.575-1.622-0.863-3.138-0.863c-0.445,0-0.922,0.034-1.431,0.101c-0.51,0.067-1.033,0.161-1.569,0.283
			c-0.537,0.121-1.046,0.269-1.529,0.444c-0.484,0.175-0.909,0.369-1.275,0.584L263.706,26.972z M269.275,42.7
			c0.732,0,1.386-0.098,1.961-0.295c0.575-0.196,1.072-0.444,1.491-0.745c0.418-0.3,0.765-0.634,1.04-1
			c0.274-0.366,0.476-0.719,0.608-1.059v-3.255c-0.367-0.026-0.739-0.045-1.118-0.059c-0.379-0.013-0.752-0.02-1.118-0.02
			c-0.811,0-1.602,0.046-2.372,0.137c-0.772,0.092-1.451,0.262-2.04,0.51c-0.588,0.249-1.058,0.588-1.412,1.02
			c-0.353,0.431-0.529,0.975-0.529,1.628c0,0.915,0.327,1.667,0.981,2.255C267.418,42.405,268.255,42.7,269.275,42.7z"/>
		<path fill="#939598" d="M280.178,25.521h3.059v-3.883l3.138-0.902v4.785h5.334v2.745h-5.334v10.865c0,1.36,0.17,2.321,0.51,2.883
			c0.339,0.563,0.915,0.843,1.725,0.843c0.68,0,1.255-0.072,1.726-0.216c0.47-0.144,0.994-0.333,1.569-0.569l0.706,2.392
			c-0.706,0.34-1.478,0.615-2.314,0.824c-0.837,0.209-1.74,0.314-2.706,0.314c-1.596,0-2.72-0.451-3.373-1.353
			c-0.655-0.902-0.981-2.412-0.981-4.53V28.266h-3.059V25.521z"/>
		<path fill="#939598" d="M295.356,21.309c0-0.601,0.202-1.118,0.608-1.549c0.405-0.431,0.922-0.647,1.549-0.647
			c0.627,0,1.163,0.216,1.608,0.647c0.444,0.432,0.667,0.948,0.667,1.549c0,0.602-0.223,1.098-0.667,1.49
			c-0.445,0.392-0.981,0.588-1.608,0.588c-0.627,0-1.144-0.196-1.549-0.588C295.558,22.407,295.356,21.911,295.356,21.309z
			 M296.022,25.521h3.138v19.61h-3.138V25.521z"/>
		<path fill="#939598" d="M310.808,37.013l1.098,3.726h0.039l0.98-3.804l4.393-11.413h3.373l-8.355,20.042h-1.333l-8.511-20.042
			h3.608L310.808,37.013z"/>
		<path fill="#939598" d="M318.812,43.54c0-0.706,0.202-1.261,0.608-1.667c0.406-0.405,0.948-0.607,1.627-0.607
			c0.706,0,1.268,0.203,1.687,0.607c0.418,0.406,0.627,0.961,0.627,1.667c0,0.68-0.209,1.23-0.627,1.647
			c-0.419,0.418-0.981,0.628-1.687,0.628c-0.68,0-1.222-0.21-1.627-0.628C319.014,44.77,318.812,44.22,318.812,43.54z"/>
	</g>
</g>
</svg>
